<svg fill="none" height="555" viewBox="0 0 566 555" width="566" xmlns="http://www.w3.org/2000/svg" xmlns:xlink="http://www.w3.org/1999/xlink"><linearGradient id="a"><stop offset="0" stop-color="#ffd5d3"/><stop offset="1" stop-color="#fe96a6"/></linearGradient><linearGradient id="b" gradientUnits="userSpaceOnUse" x1="175.31" x2="156.274" xlink:href="#a" y1="247.346" y2="121.649"/><linearGradient id="c" gradientUnits="userSpaceOnUse" x1="-17699.2" x2="-17055.6" xlink:href="#a" y1="10412.7" y2="9071.55"/><linearGradient id="d" gradientUnits="userSpaceOnUse" x1="-38700.4" x2="-40441" xlink:href="#a" y1="16580.5" y2="9678.68"/><linearGradient id="e"><stop offset="0" stop-color="#f4abff"/><stop offset="1" stop-color="#9552ff"/></linearGradient><linearGradient id="f" gradientUnits="userSpaceOnUse" x1="-138292" x2="-147603" xlink:href="#e" y1="50757.5" y2="84257.9"/><linearGradient id="g" gradientUnits="userSpaceOnUse" x1="-24174.6" x2="-27629" xlink:href="#e" y1="14199.4" y2="35081.7"/><linearGradient id="h" gradientUnits="userSpaceOnUse" x1="-68559.8" x2="-76585.5" xlink:href="#e" y1="33400.9" y2="55628"/><linearGradient id="i" gradientUnits="userSpaceOnUse" x1="-26359.9" x2="-31302.3" xlink:href="#a" y1="14768.5" y2="17535.5"/><linearGradient id="j" gradientUnits="userSpaceOnUse" x1="-87893.6" x2="-95119.4" xlink:href="#e" y1="34257.7" y2="57059.6"/><linearGradient id="k" gradientUnits="userSpaceOnUse" x1="-19961.9" x2="-20367" xlink:href="#e" y1="7505.13" y2="8918.53"/><linearGradient id="l" gradientUnits="userSpaceOnUse" x1="-21660.2" x2="-21871" xlink:href="#a" y1="5929.29" y2="4542.07"/><path d="m.342712 250.882c0 1.586.133789 3.173.210205 4.778 4.281003 78.147 41.739883 141.694 94.239583 189.74 1.5098 1.395 3.0386 2.771 4.5867 4.147 39.5988 35.032 87.2068 61.502 135.4058 79.103 98.081 35.816 198.57 34.822 238.895-6.001 25.801-26.068 37.708-50.168 40.135-73.102 5.733-55.079-42.925-103.604-85.047-157.307l-6.077-81.779c-7.645-18.806-6.728-41.071-4.472-64.177 1.356-14.181 3.21-28.667 3.822-42.848 1.414-31.4006-3.115-61.3676-31.936-83.3269-11.581-8.8104-32.49-15.09817-58.825-17.90758-14.176-1.451919-28.434-1.949939-42.677-1.490708-67.12 1.911158-150.981 22.628188-210.8391 71.993488-9.3319 7.6778-18.0362 16.0881-26.03 25.1509-26.7563 30.3878-45.52388 68.9358-50.41646 117.0018-1.177486 11.97-1.503231 24.009-.974728 36.025z" fill="#e6eeff" opacity=".65"/><path d="m257.26 98.6581h46.231c1.626 0 2.943 1.3177 2.943 2.9429v30.254c0 1.625-1.317 2.943-2.943 2.943h-46.231c-1.625 0-2.943-1.318-2.943-2.943v-30.254c0-1.6252 1.318-2.9429 2.943-2.9429z" fill="#fff"/><g fill="#e6eeff"><path d="m292.464 120.254h5.103c.517 0 .936.419.936.937v6.841c0 .518-.419.937-.936.937h-5.103c-.517 0-.937-.419-.937-.937v-6.841c0-.518.42-.937.937-.937z"/><path d="m277.824 114.865h5.103c.518 0 .937.419.937.936v12.232c0 .517-.419.936-.937.936h-5.103c-.517 0-.936-.419-.936-.936v-12.232c0-.517.419-.936.936-.936z"/><path d="m263.185 113.087h5.103c.517 0 .936.419.936.937v13.989c0 .518-.419.937-.936.937h-5.103c-.517 0-.937-.419-.937-.937v-13.989c0-.518.42-.937.937-.937z"/><path d="m291.279 107.029h6.326c.24-.005.468-.104.636-.275.168-.172.262-.402.262-.642 0-.239-.094-.467-.263-.636-.168-.168-.397-.263-.635-.263h-6.326c-.118 0-.235.024-.344.069s-.208.111-.291.194c-.084.084-.15.183-.195.292s-.068.226-.068.344c0 .24.094.47.262.642.168.171.396.27.636.275z"/></g><path d="m296.439 118.668h69.643c3.388 0 6.135 2.747 6.135 6.135v50.55c0 3.388-2.747 6.135-6.135 6.135h-69.643c-3.388 0-6.135-2.747-6.135-6.135v-50.55c0-3.388 2.747-6.135 6.135-6.135z" fill="#ff72a6"/><path d="m331.567 170.48v10.912h34.515c1.624 0 3.181-.643 4.331-1.79 1.15-1.146 1.799-2.702 1.804-4.325v-13.379h-32.146c-1.123 0-2.235.223-3.272.655s-1.978 1.066-2.769 1.863c-.791.798-1.415 1.745-1.838 2.785-.423 1.041-.636 2.155-.625 3.279z" fill="#ef5b97"/><path d="m290.324 155.324v1.644c2.56-1.606 4.904-3.533 6.975-5.734 3.937-3.822 7.645-7.453 13.895-7.453 6.517 0 11.256 5.274 15.862 10.358s8.486 9.422 13.933 9.422c3.667-.23 7.253-1.185 10.549-2.809 6.403-2.638 12.442-5.122 20.182 2.599.132.131.31.206.497.21v-1.682c-8.161-7.797-14.792-5.064-21.214-2.427-3.128 1.549-6.531 2.465-10.014 2.695-4.817 0-8.734-4.338-12.901-8.944-4.797-5.313-9.766-10.837-16.894-10.837-6.804 0-10.913 4.014-14.869 7.874-1.825 1.892-3.836 3.595-6.001 5.084z" fill="#b854a6"/><path d="m352.455 134.798h9.25c.316 0 .62-.124.845-.346.225-.221.354-.523.359-.839 0-.319-.127-.625-.353-.851-.225-.226-.532-.353-.851-.353h-9.25c-.319 0-.625.127-.851.353s-.353.532-.353.851c.005.316.134.618.359.839.226.222.529.346.845.346z" fill="#fff"/><path d="m345.69 140.99h16.015c.316 0 .62-.124.845-.346.225-.221.354-.523.359-.839 0-.157-.031-.313-.092-.458s-.15-.276-.262-.386c-.112-.111-.245-.198-.391-.256s-.302-.087-.459-.085h-16.015c-.315 0-.616.125-.838.347-.223.223-.347.524-.347.838 0 .315.124.616.347.838.222.222.523.347.838.347z" fill="#fff"/><path d="m303.682 144.258c0 1.595.473 3.155 1.36 4.481.886 1.326 2.145 2.36 3.619 2.971 1.474.61 3.095.77 4.66.458 1.564-.311 3.001-1.079 4.129-2.207s1.896-2.565 2.208-4.129c.311-1.565.151-3.186-.459-4.66-.611-1.474-1.645-2.733-2.971-3.62-1.326-.886-2.885-1.359-4.481-1.359-2.139 0-4.19.85-5.702 2.362-1.513 1.513-2.363 3.564-2.363 5.703z" fill="#fff" opacity=".41"/><path d="m306.434 144.258c.001 1.055.315 2.086.903 2.962s1.424 1.556 2.4 1.956c.976.399 2.05.498 3.083.285s1.979-.728 2.718-1.481c.739-.752 1.238-1.708 1.432-2.745s.075-2.108-.342-3.077-1.113-1.792-1.999-2.364-1.922-.868-2.977-.849c-1.394.021-2.724.59-3.701 1.585-.977.994-1.522 2.334-1.517 3.728z" fill="#fff"/><path d="m311.652 146.571c.108-.005.21-.052.285-.13s.116-.182.116-.291v-3.554c.013-.062.013-.125-.002-.186-.014-.061-.042-.119-.081-.167-.04-.049-.09-.089-.146-.116-.057-.027-.119-.041-.182-.041-.062 0-.124.014-.181.041s-.107.067-.146.116c-.039.048-.067.106-.082.167-.014.061-.015.124-.002.186v3.554c0 .112.045.219.124.298.078.079.185.123.297.123z" fill="#ff72a6"/><path d="m310.161 144.354c.106-.004.208-.045.287-.115l1.3-1.299 1.299 1.299c.076.076.179.119.287.119.107 0 .21-.043.287-.119.076-.076.118-.179.118-.287 0-.107-.042-.21-.118-.286l-1.587-1.606c-.078-.072-.18-.112-.286-.112-.107 0-.209.04-.287.112l-1.605 1.606c-.073.078-.113.18-.113.286 0 .107.04.209.113.287.085.073.193.114.305.115z" fill="#ff72a6"/><path d="m344.619 166.6h212.35c4.697 0 8.504 3.807 8.504 8.504v192.818c0 4.697-3.807 8.504-8.504 8.504h-212.35c-4.697 0-8.504-3.807-8.504-8.504v-192.818c0-4.697 3.807-8.504 8.504-8.504z" fill="#3878ff"/><path d="m419.671 166.657v31.802c0 .657.129 1.309.381 1.916.251.608.62 1.16 1.085 1.625.465.464 1.017.833 1.625 1.085.607.252 1.258.381 1.916.381h78.797c1.328 0 2.602-.527 3.541-1.466.939-.94 1.466-2.213 1.466-3.541v-31.802z" fill="#15289e"/><path d="m336.115 226.515v139.725h154.192c.906 0 1.802-.179 2.638-.526s1.595-.855 2.234-1.496 1.146-1.402 1.49-2.239c.345-.837.521-1.733.519-2.638v-125.927c0-1.826-.725-3.578-2.014-4.872-1.29-1.293-3.04-2.022-4.867-2.027z" fill="#15289e"/><path d="m347.467 179.194c0 .496.147.98.422 1.391.275.412.666.733 1.124.922.457.19.961.239 1.446.143.486-.097.932-.335 1.282-.685s.589-.797.685-1.282c.097-.486.047-.989-.142-1.447-.19-.457-.511-.848-.922-1.123-.412-.275-.896-.422-1.391-.422-.33-.003-.656.06-.961.185s-.582.309-.815.542-.418.51-.543.815c-.124.305-.187.632-.185.961z" fill="#fff"/><path d="m361.992 179.194c0 .496.147.98.422 1.391.275.412.666.733 1.124.922.457.19.961.239 1.446.143.486-.097.932-.335 1.282-.685s.589-.797.685-1.282c.097-.486.047-.989-.142-1.447-.19-.457-.511-.848-.922-1.123-.412-.275-.896-.422-1.391-.422-.33-.003-.656.06-.961.185s-.582.309-.815.542-.418.51-.542.815c-.125.305-.188.632-.186.961z" fill="#fff"/><path d="m376.498 179.194c-.004.5.141.99.416 1.407s.667.744 1.128.938c.46.194.968.246 1.459.151s.942-.334 1.297-.686c.354-.352.596-.801.695-1.291s.05-.998-.14-1.46c-.19-.463-.514-.858-.929-1.136s-.904-.426-1.403-.426c-.331-.003-.658.06-.964.185-.306.124-.585.309-.819.541-.235.233-.421.51-.548.815s-.192.632-.192.962z" fill="#fff"/><path d="m198.225 130.536c30.578 7.167 35.719 48.41 27.96 76.447-7.759 28.036 21.023 35.05 10.511 57.086-10.511 22.036-14.505 3.268-48.314-1.739-33.808-5.007-85.716 16.512-94.1821 6.116-8.4664-10.397-9.9761-35.51 9.2881-41.855 19.265-6.345 15.786-38.644 26.049-48.142 10.263-9.499 12.27-61.176 68.688-47.913z" fill="#1e2c66"/><path d="m149.585 236.472c2.408 10.435 9.556 27.731 26.527 27.521 17.889-.211 21.424-18.233 22.112-24.31-3.822-1.128-6.173-1.644-6.173-1.644l.192-2.465.133-1.911 1.013-13.226-31.897-26.584-.153-.134v.306c.312 7.774.063 15.559-.745 23.297-.23 2.523-.497 4.912-.765 7.033-.764 6.231-1.51 10.435-1.51 10.435-3.019.669-5.924 1.147-8.734 1.682z" fill="url(#b)"/><path d="m160.67 217.399c4.224 11.466 15.442 18.251 31.764 16.34l1.013-13.225-31.898-26.585-.134.172c.312 7.774.063 15.56-.745 23.298z" fill="url(#c)"/><path d="m149.203 198.172c7.052.918 7.645-3.478 7.645-3.478s10.339 32.012 33.617 31.821 29.681-34.191 24.062-58.96c-5.144-1.201-9.694-4.187-12.843-8.428-.495-.61-.954-1.248-1.376-1.911-3.156 5.691-8.208 10.094-14.277 12.442-10.396 4.185-25.877 6.02-25.877 6.02s0 1.013-.248 2.465c-.421 3.67-1.395 10.263-3.001 10.665-2.236.573-2.331-11.2-9.556-10.875-7.224.325-5.122 19.303 1.854 20.239z" fill="url(#d)"/><path d="m95.9391 427.932-.7072 13.589h130.8761s-.669-5.39-1.471-13.589c-.21-2.255-.44-4.72-.669-7.358-.363-4.281-.726-8.982-1.032-13.875-.115-1.911-.23-3.822-.325-5.619 0-.573 0-1.146 0-1.72-.229-4.644-.382-9.326-.44-13.894 0-2.484 0-4.95 0-7.339 0-5.026.344-9.747.822-13.875.27-2.478.705-4.936 1.3-7.358.233-.958.52-1.902.86-2.828 1.376-3.708 2.522-6.88 3.478-9.556.172-.516.344-.994.497-1.472 1.07-3.057 1.911-5.466 2.427-7.338.669-1.963 1.205-3.967 1.606-6.002 0 0 1.07 2.351 2.943 6.002 1.07 2.083 2.389 4.586 3.918 7.338 2.408 4.301 5.294 9.155 8.523 13.875 1.74 2.542 3.555 5.027 5.428 7.358 6.613 8.218 14.028 14.544 20.927 14.181.478 0 .975 0 1.51-.153 21.405-3.019 81.282-45.868 81.282-45.868l-12.404-24.348-66.432 30.044s-16.034-47.779-32.719-69.777c-10.32-13.607-28.514-21.94-40.937-26.317-2.618-.917-4.988-1.662-6.975-2.255-.688 6.078-4.224 24.1-22.113 24.31-16.933.21-24.119-17.086-26.527-27.52-1.796.324-3.535.668-5.236 1.012-37 7.339-53.0732 14.678-61.1573 31.095-5.3322 10.875 6.7272 24.845 17.4873 34.516l1.586 1.395-1.605 31.19-.383 7.339-.7067 13.875-.3823 7.358-.707 13.875-.3823 7.339-.7071 13.894-.3823 7.339-.7262 13.875z" fill="url(#f)"/><path d="m233.103 329.679s22.705 49.691 41.74 48.754c.478 0 .975 0 1.51-.153-28.171-7.874-33.197-68.802-50.417-98.253 3.249 12.27 13.78 24.54 7.167 49.652z" fill="url(#g)"/><path d="m95.2318 441.521h8.7532c5.5-7.628 12.775-13.802 21.197-17.988 8.421-4.185 17.735-6.257 27.136-6.036 24.845.21 52.958-9.364 70.293-16.417-.956-18.289-.937-37.86 2.484-47.014 1.376-3.708 2.523-6.88 3.479-9.556-6.498-.344-19.647 1.376-37.192 3.822-43.211 6.154-46.823-37.325-81.797-65.438l-8.887 20.144 1.586 1.395z" fill="url(#h)"/><g fill="#fff" opacity=".15"><path d="m95.9391 427.932h128.6979c-.21-2.255-.44-4.72-.669-7.358h-127.6657z" opacity=".15"/><path d="m97.0284 406.699h125.9076c-.115-1.911-.23-3.822-.325-5.619 0-.573 0-1.147 0-1.72h-125.2004z" opacity=".15"/><path d="m222.095 385.466c0-2.484 0-4.95 0-7.339h-123.614l-.3823 7.339z" opacity=".15"/><path d="m99.207 364.252h123.729c.27-2.478.704-4.936 1.299-7.358h-124.7223z" opacity=".15"/><path d="m100.296 343.019h128.775c1.07-3.058 1.911-5.466 2.427-7.339h-130.819z" opacity=".15"/></g><path d="m263.051 213.997h217.567c3.81 0 6.899 3.089 6.899 6.899v125.926c0 3.811-3.089 6.9-6.899 6.9h-217.567c-3.81 0-6.899-3.089-6.899-6.9v-125.926c0-3.81 3.089-6.899 6.899-6.899z" fill="#fff"/><path d="m405.507 306.486c-12.502-12.502-12.502-32.77 0-45.272 12.501-12.501 32.77-12.501 45.271 0 12.502 12.502 12.502 32.77 0 45.272-12.501 12.501-32.77 12.501-45.271 0z" fill="#ffd981"/><path d="m406.817 287.337c-1.919-11.782 6.078-22.89 17.86-24.808 11.783-1.919 22.89 6.077 24.809 17.859 1.919 11.783-6.077 22.89-17.86 24.809s-22.89-6.077-24.809-17.86z" fill="#ff814f"/><path d="m428.825 292.24v-2.083c1.329-.038 2.633-.364 3.823-.956l-.669-2.58c-1.116.625-2.372.96-3.651.975-1.261 0-2.121-.478-2.121-1.376 0-.899.707-1.357 2.332-1.912 2.369-.783 3.975-1.911 3.975-4.032-.034-.996-.432-1.945-1.119-2.667s-1.615-1.167-2.608-1.251v-2.102h-2.16v1.911c-1.102.017-2.189.265-3.191.726l.63 2.485c.991-.478 2.074-.732 3.173-.746 1.433 0 1.911.612 1.911 1.243 0 .63-.783 1.184-2.656 1.911-2.619.917-3.67 2.14-3.67 4.109.031 1.046.448 2.043 1.172 2.799.724.755 1.702 1.215 2.746 1.291v2.236z" fill="#ffd981"/><path d="m288.451 270.701h85.639c1.308 0 2.562-.52 3.487-1.444.924-.925 1.444-2.179 1.444-3.487-.005-1.304-.527-2.554-1.451-3.474-.924-.921-2.176-1.438-3.48-1.438h-85.639c-1.305 0-2.556.517-3.48 1.438-.924.92-1.446 2.17-1.451 3.474 0 1.308.519 2.562 1.444 3.487.925.924 2.179 1.444 3.487 1.444z" fill="#a9c0ff"/><path d="m317.959 288.781h58.329c.721 0 1.414-.286 1.926-.794s.802-1.199.807-1.92c0-.358-.071-.713-.209-1.043-.137-.331-.339-.631-.593-.883s-.555-.452-.887-.587c-.331-.135-.686-.204-1.044-.201h-58.329c-.72 0-1.41.286-1.919.795s-.795 1.199-.795 1.919c.005.718.293 1.405.801 1.913s1.195.796 1.913.801z" fill="#c2d1f9"/><path d="m335.332 306.86h40.956c.721 0 1.414-.285 1.926-.794.512-.508.802-1.198.807-1.92 0-.358-.071-.712-.209-1.043-.137-.33-.339-.63-.593-.882-.254-.253-.555-.452-.887-.587-.331-.136-.686-.204-1.044-.202h-40.956c-.358-.002-.713.066-1.045.202-.331.135-.633.334-.887.587-.254.252-.455.552-.593.882-.138.331-.208.685-.208 1.043.005.722.295 1.412.807 1.92.512.509 1.204.794 1.926.794z" fill="#c2d1f9"/><path d="m249 245.37c-13.726-13.726-13.726-35.979 0-49.705 13.725-13.725 35.979-13.725 49.704 0 13.726 13.726 13.726 35.979 0 49.705-13.725 13.725-35.979 13.725-49.704 0z" fill="#0fc3a5" opacity=".2"/><path d="m273.849 243.639c-12.771 0-23.125-10.354-23.125-23.125 0-12.772 10.354-23.125 23.125-23.125 12.772 0 23.125 10.353 23.125 23.125 0 12.771-10.353 23.125-23.125 23.125z" fill="#0fc3a5"/><path d="m273.849 230.567c.472 0 .924-.188 1.257-.521s.521-.785.521-1.257v-15.557c0-.471-.188-.923-.521-1.256-.333-.334-.785-.521-1.257-.521-.471 0-.923.187-1.257.521-.333.333-.52.785-.52 1.256v15.557c0 .472.187.924.52 1.257.334.333.786.521 1.257.521z" fill="#fff"/><path d="m266.912 220.934c.233.001.465-.044.682-.132.216-.089.413-.219.579-.384l5.733-5.733 5.734 5.733c.158.189.354.344.575.453.221.11.463.172.709.183.247.011.493-.03.723-.119s.439-.226.613-.4c.175-.174.311-.383.4-.613.09-.23.13-.476.119-.723-.011-.246-.073-.488-.182-.709-.11-.221-.264-.417-.453-.575l-6.938-6.938c-.333-.33-.783-.516-1.252-.516s-.919.186-1.252.516l-6.918 6.938c-.243.248-.408.562-.474.903s-.031.694.101 1.015c.132.322.356.597.643.793.287.195.625.303.972.308z" fill="#fff"/><path d="m239.028 351.39s16.933-20.793 18.194-23.048 6.498 0 5.179 5.848c-1.321 4.642-3.141 9.127-5.427 13.378 0 0 37.305-6.25 37.554-2.752.248 3.497-2.752 19.284-51.601 31.553" fill="url(#i)"/><path d="m118.815 392.996c1.174 1.78 2.45 3.49 3.823 5.122 7.644 9.04 17.678 12.671 31.84 11.467 10.951-.975 24.386-4.854 41.262-11.467 38.739-15.022 52.423-21.023 52.423-21.023l-9.135-30.789-86.003 20.431s-28.667-75.453-45.065-89.825c-16.3977-14.372-24.7113-8.352-24.7113-8.352-13.8368 28.056 19.4553 100.47 35.5663 124.436z" fill="url(#j)"/><path d="m118.815 392.996c1.174 1.78 2.45 3.49 3.823 5.122 7.644 9.04 17.678 12.671 31.84 11.467-.383-3.952-1.793-7.736-4.089-10.975-2.296-3.24-5.399-5.823-9.001-7.493-3.602-1.671-7.578-2.371-11.534-2.031-3.956.339-7.755 1.707-11.019 3.967z" fill="url(#k)"/><path d="m160.001 178.124c20.622 8.027 36.905-5.944 41.778-19.016-.494-.611-.954-1.249-1.376-1.911-3.155 5.691-8.208 10.094-14.276 12.442-10.397 4.185-25.877 6.02-25.877 6.02s-.077 1.032-.249 2.465z" fill="url(#l)"/><path d="m418.734 135.792h78.798c2.765 0 5.007 2.242 5.007 5.007v51.583c0 2.765-2.242 5.007-5.007 5.007h-78.798c-2.765 0-5.007-2.242-5.007-5.007v-51.583c0-2.765 2.242-5.007 5.007-5.007z" fill="#00b5ff"/><path d="m478.745 172.601h8.696c.876 0 1.586.71 1.586 1.586v11.677c0 .876-.71 1.587-1.586 1.587h-8.696c-.876 0-1.586-.711-1.586-1.587v-11.677c0-.876.71-1.586 1.586-1.586z" fill="#f5f5f5"/><path d="m453.785 163.427h8.696c.876 0 1.587.711 1.587 1.587v20.87c0 .876-.711 1.586-1.587 1.586h-8.696c-.876 0-1.586-.71-1.586-1.586v-20.87c0-.876.71-1.587 1.586-1.587z" fill="#f5f5f5"/><path d="m428.845 160.427h8.695c.876 0 1.587.71 1.587 1.586v23.87c0 .876-.711 1.587-1.587 1.587h-8.695c-.876 0-1.587-.711-1.587-1.587v-23.87c0-.876.711-1.586 1.587-1.586z" fill="#f5f5f5"/><path d="m476.7 150.068h10.779c.41 0 .804-.163 1.094-.453.291-.29.454-.684.454-1.095-.005-.409-.17-.8-.459-1.089s-.68-.454-1.089-.459h-10.779c-.407.005-.796.171-1.082.46-.287.29-.447.681-.447 1.088-.003.203.035.404.111.591.076.188.188.359.33.503s.312.258.498.336c.187.078.387.118.59.118z" fill="#f5f5f5"/><path d="m94.7923 445.4c40.4787 37.096 89.9197 64.98 139.9927 83.251l-8.677-87.13h-130.8762z" fill="#1e2c66"/><path d="m1.41287 214.78h2.65654c13.52589-.052 26.73159-4.12 37.94229-11.688s19.9213-18.295 25.0272-30.82 6.377-26.285 3.6522-39.533c-2.7248-13.249-9.3228-25.39-18.9573-34.8837 7.9968-9.0363 16.7011-17.421 26.03-25.0744 14.6064 14.5982 24.5552 33.2001 28.5892 53.4531s1.971 41.247-5.927 60.328c-7.8989 19.081-21.2785 35.39-38.4469 46.866-17.1684 11.477-37.3544 17.604-58.00522 17.607-1.24226 0-2.48454 0-3.726794 0-.475937-12.097-.086365-24.213 1.165784-36.255z" fill="#d2e0ff" opacity=".5"/><path d="m381.505 474.851c17.995-.013 35.687 4.63 51.357 13.478 15.67 8.847 28.783 21.599 38.066 37.015-9.161 8-19.758 14.188-31.228 18.233-6.452-10.534-15.64-19.121-26.586-24.846s-23.24-8.374-35.572-7.664-24.241 4.752-34.458 11.695c-10.216 6.944-18.358 16.528-23.558 27.733-11.83-1.758-23.909-4.128-36.121-7.09 7.349-20.107 20.702-37.469 38.25-49.731 17.548-12.263 38.442-18.834 59.85-18.823z" fill="#e6eeff" opacity=".8"/></svg>