<svg fill="none" height="48" viewBox="0 0 48 48" width="48" xmlns="http://www.w3.org/2000/svg"><circle cx="24" cy="24" fill="#0fc4a5" r="24"/><path d="m19.35 21.1c-.2167-1.3833-.7-2.4333-1.45-3.15s-1.7083-1.0667-2.875-1.05c-.7167 0-1.35.2-1.9.6-.5333.4-.8.9167-.8 1.55 0 .7667.3333 1.4 1 1.9s1.6833 1.0333 3.05 1.6c.6333.25 1.2833.5417 1.95.875s1.2833.7333 1.85 1.2c.5667.45 1.025.9833 1.375 1.6.35.6.525 1.3083.525 2.125 0 .9833-.2667 1.8583-.8 2.625s-1.2833 1.3667-2.25 1.8c-.95.4167-2.0667.625-3.35.625-.6667 0-1.3917-.1083-2.175-.325-.7667-.2-1.4917-.5-2.175-.9l.075 1.05h-1.925v-5.85h1.65c.2333 1.4.7667 2.4583 1.6 3.175.85.7 1.8583 1.05 3.025 1.05.8833 0 1.6-.2333 2.15-.7.5667-.4667.85-1.0167.85-1.65 0-.5833-.2083-1.0667-.625-1.45-.4-.3833-.9083-.7083-1.525-.975-.6-.2667-1.2167-.525-1.85-.775-1.0667-.4333-2.0333-.9167-2.9-1.45-.85-.55-1.525-1.2-2.025-1.95-.5-.7667-.75-1.6917-.75-2.775 0-.5167.1-1.05.3-1.6.2-.5667.525-1.0833.975-1.55.45-.4833 1.05-.875 1.8-1.175s1.675-.45 2.775-.45c.6667 0 1.3917.1 2.175.3.8.2 1.4833.5 2.05.9l-.1-1.025h1.95v5.825zm4.8414 11.9v-1.65c.3833-.0167.7-.0667.95-.15.2667-.0833.4667-.275.6-.575.15-.3.225-.7833.225-1.45v-9.575c0-.45.0083-.8833.025-1.3.0333-.4167.0583-.7333.075-.95-.2667.0167-.6.0333-1 .05-.4 0-.6917.0083-.875.025v-1.925c1.15-.0167 2.3-.025 3.45-.025 1.1667 0 2.325-.0083 3.475-.025 2-.0167 3.5833.3583 4.75 1.125 1.1833.75 1.7333 1.8917 1.65 3.425-.05.7167-.3667 1.4083-.95 2.075-.5833.65-1.4667 1.1333-2.65 1.45v.025c1.6667.2667 2.8917.825 3.675 1.675.7833.8333 1.175 1.7667 1.175 2.8 0 1.0833-.2667 2-.8 2.75-.5167.7333-1.2333 1.2917-2.15 1.675-.9167.3667-1.9583.55-3.125.55zm5.4-9.825 1.3-.025c1.05-.0333 1.775-.3667 2.175-1 .4167-.65.625-1.4333.625-2.35 0-.6667-.1333-1.1833-.4-1.55-.2667-.3833-.6-.6583-1-.825s-.8167-.2417-1.25-.225c-.2667 0-.5083.0417-.725.125s-.3917.275-.525.575c-.1333.2833-.2.75-.2 1.4zm-.1 8.05h1.25c.4 0 .7917-.0083 1.175-.025 1.0167-.05 1.7583-.375 2.225-.975s.7-1.3583.7-2.275c0-.7667-.1583-1.3667-.475-1.8-.3167-.45-.725-.7667-1.225-.95-.4833-.1833-.9917-.275-1.525-.275-.4167 0-.775 0-1.075 0s-.6167.0083-.95.025v4.075c0 .45-.0083.875-.025 1.275s-.0417.7083-.075.925z" fill="#fff"/></svg>