<svg fill="none" height="520" viewBox="0 0 565 520" width="565" xmlns="http://www.w3.org/2000/svg" xmlns:xlink="http://www.w3.org/1999/xlink"><linearGradient id="a" gradientUnits="userSpaceOnUse" x1="418.281" x2="414.438" y1="302.079" y2="274.796"><stop offset="0" stop-color="#d37897" stop-opacity="0"/><stop offset=".9368" stop-color="#e26356" stop-opacity=".7"/></linearGradient><clipPath id="b"><path d="m0 .499268h551v519h-551z"/></clipPath><path d="m565 85.4993v433.9997h-434z" fill="#6976ea"/><path d="m476 112.499v200h-200z" fill="#1dc9bd" opacity=".2"/><g clip-path="url(#b)"><path d="m62.706 192.995c-1.1597 11.25 4.4399 25.085-4.1252 32.458-5.1357 4.424-13.2204 3.877-18.3893 8.268-8.7142 7.406-2.9489 21.672 4.2908 30.503 7.2398 8.848 16.1197 19.8 11.6135 30.321-2.2863 5.335-7.5214 8.748-10.8514 13.487-7.4054 10.538-3.8269 25.615 3.9264 35.905 20.0129 26.476 61.9102 28.084 90.0582 10.488 10.205-6.379 19.466-15.376 22.829-26.941s-.828-25.814-11.597-31.166c-4.357-2.171-9.957-3.248-12.011-7.655-3.529-7.539 6.411-13.686 12.591-19.253 11.696-10.521 10.735-31.828-1.856-41.256-5.334-3.993-12.557-6.445-15.059-12.625-1.773-4.375-.563-9.312-.48-14.051.579-35.755-67.1296-45.348-70.94-8.483z" fill="#0fc3a5" opacity=".4"/><path d="m98.2423 215.33h-1.839v237.828h1.839z" fill="#00b06e"/><path d="m97.2808 273.635-31.2784-26.261 1.1929-1.409 30.1849 25.351 37.5078-26.626 1.06 1.507z" fill="#00b06e"/><path d="m97.2808 336.331-31.2784-26.278 1.1929-1.408 30.1849 25.35 37.5078-26.626 1.06 1.508z" fill="#00b06e"/><path d="m93.2555 363.372c-.8449 8.151 3.214 18.176-2.9986 23.511-3.711 3.198-9.5757 2.8-13.3199 5.981-6.312 5.368-2.1371 15.691 3.1146 22.103 5.2518 6.395 11.6632 14.348 8.416 21.953-1.6567 3.861-5.4505 6.33-7.8527 9.776-5.3511 7.638-2.7832 18.557 2.8495 25.996 14.4961 19.187 44.8306 20.33 65.2236 7.589 7.389-4.623 14.099-11.134 16.534-19.502 2.436-8.367-.596-18.689-8.399-22.566-3.148-1.574-7.207-2.353-8.698-5.551-2.551-5.451 4.639-9.908 9.112-13.934 8.466-7.622 7.77-23.047-1.342-29.874-3.86-2.899-9.095-4.672-10.918-9.146-1.292-3.164-.414-6.743-.347-10.173.414-25.913-48.6244-32.872-51.3745-6.163z" fill="#0fc3a5" opacity=".4"/><path d="m119.001 379.543h-1.342v106.918h1.342z" fill="#00b06e"/><path d="m118.288 421.777-22.6466-19.021.8614-1.028 21.8522 18.359 27.169-19.286.779 1.093z" fill="#00b06e"/><path d="m118.288 467.175-22.6466-19.037.8614-1.011 21.8522 18.358 27.169-19.286.779 1.094z" fill="#00b06e"/><path d="m471.363 379.626c-.646 6.23 2.452 13.884-2.286 17.977-2.85 2.452-7.323 2.154-10.173 4.573-4.821 4.092-1.64 11.996 2.369 16.9 4.01 4.888 8.913 10.969 6.428 16.784-1.259 2.949-4.158 4.838-6.013 7.473-4.092 5.832-2.121 14.183 2.17 19.882 11.083 14.664 34.277 15.542 49.85 5.799 5.649-3.529 10.785-8.516 12.64-14.912 1.856-6.395-.447-14.298-6.428-17.264-2.418-1.193-5.516-1.806-6.659-4.242-1.955-4.175 3.545-7.572 6.974-10.654 6.478-5.832 5.948-17.612-1.027-22.831-2.949-2.204-6.958-3.579-8.333-6.992-.978-2.419-.315-5.153-.265-7.771.348-19.816-37.143-25.135-39.247-4.722z" fill="#0fc3a5"/><path d="m491.044 391.986h-1.027v81.734h1.027z" fill="#0553dd"/><path d="m490.497 424.279-17.296-14.548.647-.779 16.716 14.034 20.758-14.746.596.845z" fill="#0553dd"/><path d="m490.497 458.974-17.296-14.531.647-.795 16.716 14.033 20.758-14.729.596.828z" fill="#0553dd"/><g fill="#15289e"><path d="m146.468 42.4182-15.092.497c-.166-6.8097 1.259-13.2384 3.876-18.8221l15.093-.497c-2.618 5.6002-4.042 12.0123-3.877 18.8221z"/><path d="m150.361 23.5961-15.092.497c2.12-4.5067 5.02-8.4666 8.515-11.6478l15.093-.4971c-3.496 3.1812-6.412 7.1412-8.516 11.6479z"/><path d="m158.861 11.9483-15.093.497c5.55-5.05345 12.558-8.15181 20.261-8.3175l15.093-.49706c-7.687.16568-14.712 3.24748-20.261 8.31756z"/><path d="m156.458 446.348-15.092.497-9.99-403.9297 15.092-.4971z"/><path d="m190.984 483.644-15.093.498c-18.538.414-34.012-16.288-34.525-37.297l15.092-.497c.514 21.009 15.987 37.711 34.526 37.296z"/></g><path d="m326.004 80.1122.315 13.023-64.462 1.4581-.315-13.0396z" fill="#afc6f5"/><path d="m240.138 76.6162c6.246-.1326 11.497 5.5339 11.68 12.6088l1.342 54.329c.182 7.075-4.788 12.957-11.034 13.106l-56.626 1.276c-6.246.132-11.497-5.518-11.663-12.593l-1.342-54.3286c-.182-7.0748 4.788-12.9733 11.034-13.1224z" fill="#f6a091"/><path d="m339.655 55.7561 8.946 362.4249-179.602 4.027-8.946-362.4257zm-2.435 327.7469-3.546-143.204-157.419 3.529 3.546 143.204zm-164.742-292.5051 1.342 54.3291c.182 7.075 5.434 12.725 11.663 12.592l56.626-1.276c6.246-.132 11.216-6.031 11.033-13.106l-1.325-54.3286c-.182-7.0748-5.434-12.7413-11.663-12.6088l-56.626 1.2758c-6.262.1491-11.232 6.0476-11.05 13.1225zm162.836 129.7831-.314-13.04-159.54 3.579.315 13.04zm-.596-23.859-.315-13.04-159.539 3.579.314 13.04zm-72.58-91.493.315 13.04 64.462-1.442-.315-13.039zm-.596-23.8753.315 13.0396 64.462-1.4415-.315-13.0396z" fill="#fff"/><path d="m326.584 103.971.331 13.04-64.462 1.458-.315-13.04z" fill="#afc6f5"/><path d="m257.732 15.1128c1.64-.0331 3.032 1.4581 3.065 3.3304.049 1.8722-1.259 3.4131-2.899 3.4463-1.657.0331-3.032-1.4581-3.082-3.3138-.033-1.8723 1.259-3.4297 2.916-3.4629z" fill="#15289e"/><path d="m274.249 31.1515c1.027-.0166 1.905.9112 1.922 2.0876.033 1.1764-.795 2.154-1.822 2.1705l-32.223.7291c-1.027.0165-1.905-.9113-1.922-2.0877-.033-1.1764.795-2.1539 1.822-2.1705z" fill="#15289e"/><path d="m261.095 431.005c8.284-.182 15.209 7.291 15.441 16.669s-6.329 17.148-14.596 17.331c-8.283.182-15.208-7.291-15.44-16.669-.249-9.361 6.312-17.132 14.595-17.331z" fill="#fff"/><path d="m225.861 38.1902c1.929-.0629 3.436-1.886 3.365-4.0719-.072-2.1859-1.694-3.9069-3.623-3.844-1.93.063-3.436 1.886-3.365 4.072.071 2.1859 1.693 3.9069 3.623 3.8439z" fill="#15289e"/><path d="m333.675 240.299 3.545 143.204-157.436 3.529-3.528-143.204z" fill="#afc6f5"/><path d="m317.704.499248c18.539-.4142194 34.012 16.270552 34.526 37.296252l9.973 403.9295c.514 21.01-14.098 38.39-32.653 38.805l-138.583 3.114c-18.538.415-34.012-16.287-34.525-37.296l-9.974-403.9298c-.513-21.0092 14.115-38.3898 32.654-38.80402zm32.057 418.907752-9.012-364.9267-181.839 4.0759 9.013 364.9268zm-87.804 46.873c8.896-.198 15.92-8.549 15.672-18.623-.249-10.09-7.687-18.11-16.584-17.911-8.896.199-15.92 8.55-15.672 18.64.249 10.074 7.704 18.093 16.584 17.894zm-19.93-434.3995c-1.028.0166-1.856.9941-1.823 2.1705s.895 2.1042 1.922 2.0877l32.223-.7291c1.027-.0165 1.855-.9941 1.822-2.1705s-.895-2.1042-1.922-2.0876zm-16.402-1.6072c-1.921.0497-3.462 1.8557-3.396 4.0428.05 2.2036 1.673 3.9268 3.595 3.8937 1.922-.0497 3.463-1.8392 3.396-4.0428-.066-2.2037-1.673-3.9434-3.595-3.8937zm32.107-15.1604c-1.657.0331-2.965 1.5906-2.916 3.4629.05 1.8722 1.425 3.3469 3.082 3.3137 1.64-.0331 2.949-1.5906 2.899-3.4463-.033-1.8722-1.408-3.3634-3.065-3.3303z" fill="#0d62f9"/><path d="m334.404 183.882.314 13.04-159.539 3.579-.315-13.04z" fill="#afc6f5"/><path d="m334.983 207.758.332 13.023-159.54 3.595-.331-13.039z" fill="#afc6f5"/><path d="m418.829 519.499c66.6 0 120.59-8.278 120.59-18.491 0-10.212-53.99-18.49-120.59-18.49-66.601 0-120.591 8.278-120.591 18.49 0 10.213 53.99 18.491 120.591 18.491z" fill="#e0e4ed" opacity=".1"/><path d="m466.31 278.374-6.494-48.315s-41.882-7.058-55.433-23.842c-12.657-15.658-20.129-29.211-20.129-29.211l-20.908 16.072s22.515 56.284 65.92 77.177" fill="#e26356"/><path d="m372.757 129.653-11.2-1.11c-.348-.034-.712-.05-1.077-.034-.033 0-.066.017-.099.017-.48.017-.961.066-1.441.166l-44.101 9.295c-.166.033-.348.083-.514.116-.099.033-.182.066-.282.099-.281.083-.546.182-.811.282-.166.066-.332.132-.497.215-.265.133-.547.282-.812.431-.1.066-.216.099-.315.166-.033.016-.066.049-.099.083-.415.265-.829.563-1.226.894-.05.05-.1.1-.166.149-.348.299-.663.613-.994.945-.116.116-.232.248-.348.381-.248.282-.497.58-.729.895-.116.149-.215.281-.315.43-.265.381-.53.763-.762 1.177-.049.066-.099.132-.132.199-.017.016-.017.033-.033.049-.282.481-.547.978-.779 1.508-.066.133-.116.282-.182.431-.166.381-.332.779-.481 1.193-.033.083-.066.149-.099.232-.033.066-.033.149-.066.232-.265.762-.497 1.557-.68 2.386 0 .033-.016.066-.033.082-.016.083-.016.166-.033.249-.132.663-.248 1.342-.331 2.038-.017.099-.033.182-.05.282v.132c-.066.762-.099 1.524-.099 2.303 0 .066-.017.133-.017.216 0 .364.017.712.033 1.077l3.711 60.89c.033.613.1 1.193.182 1.773.017.066.017.149.017.215.017.166.066.315.083.464.033.182.066.364.099.547.05.248.116.497.166.745.05.166.083.348.132.514.067.265.15.514.232.762.05.149.083.298.15.447.099.299.215.58.331.862.033.099.066.182.116.282.165.364.331.729.497 1.077.05.083.083.149.132.232.133.265.282.513.431.762.066.116.149.232.232.348.133.199.265.397.398.596.082.116.182.232.265.348.132.166.265.348.397.497.1.116.199.232.299.332.132.149.281.298.43.43.116.1.216.199.332.299.149.132.298.265.447.381.116.099.232.182.348.265.149.116.315.215.464.331.116.083.232.166.364.232.166.1.331.182.497.282.116.066.249.132.365.182.182.083.364.149.53.232.116.05.232.099.364.133.199.066.414.116.613.182.1.033.199.066.315.083.315.066.613.116.928.149h.016l11.216 1.11c-.315-.033-.646-.083-.961-.149-.099-.017-.199-.05-.298-.083-.215-.05-.414-.116-.629-.182-.116-.033-.232-.1-.348-.133-.183-.066-.365-.149-.547-.232-.116-.049-.249-.116-.365-.182-.165-.083-.331-.182-.497-.282-.116-.066-.248-.149-.364-.232-.166-.099-.315-.215-.464-.331-.116-.083-.232-.182-.348-.265-.149-.116-.298-.249-.447-.381-.116-.1-.216-.199-.331-.298-.15-.133-.282-.282-.431-.431-.1-.116-.199-.216-.298-.332-.133-.165-.265-.331-.398-.497-.099-.116-.182-.232-.265-.348-.133-.182-.265-.381-.398-.58-.083-.116-.149-.232-.232-.347-.149-.249-.298-.514-.43-.779-.05-.083-.083-.149-.133-.232-.182-.348-.348-.713-.497-1.077-.033-.1-.066-.182-.116-.282-.116-.281-.232-.563-.331-.861-.05-.15-.1-.299-.149-.448-.083-.248-.166-.497-.232-.762-.05-.166-.083-.348-.133-.514-.066-.248-.116-.497-.165-.745-.034-.182-.067-.365-.1-.547-.033-.215-.083-.447-.116-.679-.083-.58-.149-1.16-.182-1.773l-3.711-60.89c-.033-.431-.033-.862-.033-1.276 0-.779.033-1.541.099-2.303.017-.133.033-.282.05-.414.083-.696.182-1.376.331-2.038.017-.116.033-.216.066-.332.183-.812.415-1.607.68-2.386.049-.149.099-.314.165-.464.15-.397.315-.795.481-1.192.066-.15.116-.282.182-.431.249-.514.497-1.028.779-1.508.049-.083.099-.166.165-.249.249-.397.497-.795.762-1.176.1-.149.216-.282.315-.431.232-.315.481-.613.746-.894.116-.133.232-.266.348-.382.314-.331.646-.646.994-.944.049-.05.099-.099.165-.149.398-.331.812-.63 1.226-.895.133-.083.282-.165.414-.248.266-.149.531-.299.812-.431.166-.083.332-.149.481-.216.265-.115.53-.198.811-.281.266-.083.531-.166.796-.232l44.101-9.295c.48-.1.961-.149 1.441-.166.431-.033.812-.016 1.21.017z" fill="#1865ed"/><path d="m370.139 129.802c6.494-1.375 12.276 4.854 12.822 13.851l3.711 60.891c.547 8.996-4.324 17.463-10.834 18.838l-44.102 9.295c-6.51 1.376-12.276-4.854-12.822-13.851l-3.711-60.89c-.547-8.997 4.324-17.464 10.834-18.839z" fill="#3878ff"/><path d="m453.404 478.641c-.215 3.396-.513 7.058-2.684 9.692-2.551 3.099-6.908 3.894-10.884 4.474-5.799.845-11.58 1.706-17.379 2.551-.298.862.713 1.574 1.557 1.873 4.291 1.458 8.947.812 13.453.348 5.218-.547 10.454-.845 15.689-.895 2.336-.017 5.102-.232 6.279-2.237.878-1.491.48-3.38.265-5.103-.63-5.269.845-10.637.099-15.873-.083-.613-.282-1.309-.861-1.524-.299-.116-.613-.067-.928 0-4.39.878-4.357 2.717-4.606 6.694z" fill="#f9ccda"/><path d="m454.978 492.293c-4.324 2.635-8.698 3.347-13.718 2.734-.298-.033-1.988-.414-2.303-.447-.182-.961-.083-1.906-.878-1.873-3.628.133-7.256.448-10.851.912-1.143.149-5.484.248-5.948 1.143-.414.795-.149 1.806.431 2.485.58.68 1.408 1.094 2.237 1.409 4.108 1.574 8.664 1.375 13.054 1.176 5.418-.249 10.819-.514 16.236-.762 1.839-.083 3.794-.199 5.335-1.21 2.286-1.474 3.064-4.457 3.114-7.174.116-4.971-5.136.646-6.709 1.607z" fill="#004fc1"/><path d="m368.647 487.72c-.662 3.347-1.441 6.926-3.926 9.246-2.932 2.75-7.356 2.949-11.381 3.015-5.849.083-11.713.166-17.561.249-.415.811.497 1.657 1.308 2.054 4.059 2.005 8.764 1.988 13.287 2.121 5.235.149 10.47.547 15.672 1.176 2.32.282 5.087.448 6.528-1.391 1.077-1.376.911-3.298.944-5.037.066-5.302 2.237-10.422 2.187-15.724 0-.613-.099-1.326-.646-1.624-.282-.149-.597-.149-.911-.116-4.523.298-4.722 2.121-5.501 6.031z" fill="#f9ccda"/><path d="m465.117 315.422s-3.926 40.195-5.401 62.248c-1.474 22.07 12.922 69.043 12.425 81.784-.497 12.758-3.429 20.098-3.429 20.098l-30.864-.282-10.487-160.435z" fill="#263238"/><path d="m434.998 183.766c-1.772 4.49-4.059 7.771-5.119 7.357s-.48-4.391 1.292-8.864c1.773-4.491 4.059-7.771 5.12-7.357 1.06.414.48 4.374-1.293 8.864z" stroke="#0553dd" stroke-miterlimit="10"/><path d="m472.094 208.549c6.154-12.054 1.373-26.814-10.678-32.97-12.052-6.155-26.812-1.374-32.966 10.68-6.155 12.053-1.374 26.814 10.678 32.969s26.811 1.374 32.966-10.679z" fill="#f9ccda"/><path d="m443.646 209.199-5.301 27.157 14.976 5.633 5.898-33.8z" fill="#f9ccda"/><path d="m466.409 309.656s-45.443 3.032-59.873 8.483c-7.439 22.699-39.612 153.592-42.726 167.179 4.87 1.077 25.811 4.159 25.811 4.159s13.403-13.935 26.491-57.527c13.85-46.111 44.896-96.961 47.249-100.705 3.611-5.733 3.048-21.589 3.048-21.589z" fill="#263238"/><path d="m320.835 205.687c-.265-.994-.596-2.038-1.424-2.651-1.044-.796-2.535-.613-3.761-.116-1.209.497-2.319 1.259-3.595 1.59-2.286.597-4.987-.215-6.875 1.193-1.094.829-1.624 2.337-1.26 3.662.183.679.58 1.292.862 1.939.977 2.22.812 4.92 2.237 6.876 1.093 1.491 2.882 2.236 4.605 2.916 4.142 1.657 8.284 3.297 12.442 4.954.265.099.58.215.828.083.216-.1.332-.348.414-.564 1.74-4.324.994-6.412-1.176-9.908-1.888-3.015-2.419-6.578-3.297-9.974z" fill="#f9ccda"/><path d="m368.432 501.472c-4.622 2.055-9.062 2.171-13.966.895-.298-.083-1.921-.663-2.22-.745-.049-.978.166-1.906-.612-1.972-3.612-.332-7.257-.514-10.885-.53-1.16 0-5.467-.481-6.047.348-.513.729-.381 1.772.099 2.518.481.746 1.26 1.259 2.038 1.69 3.877 2.104 8.4 2.502 12.79 2.883 5.401.464 10.785.911 16.186 1.375 1.839.149 3.777.298 5.45-.497 2.452-1.16 3.629-4.026 4.043-6.71.745-4.888-5.219 0-6.876.745z" fill="#004fc1"/><path d="m318.069 194.553c-.299-.779-.729-1.624-1.508-1.889-.944-.315-1.988.414-2.369 1.325s-.298 1.955-.199 2.949c.282 2.751.563 5.501.845 8.235.166 1.558.514 3.397 1.938 4.043 1.061.48 2.403.016 3.148-.878 1.425-1.74.481-3.794.199-5.733-.431-2.767-1.027-5.451-2.054-8.052z" fill="#f9ccda"/><path d="m460.892 240.415c-.845-5.865-5.947-10.173-11.878-9.975-12.641.415-31.759 1.806-34.907 3.48-3.91 2.071-30.45 10.223-38.584 10.223-8.135 0-41.881-30.57-41.881-30.57l-16.501 17.779s30.135 37.826 41.401 42.217c11.265 4.374 46.636 4.126 46.636 4.126l1.623 40.759s52.617 10.637 57.62 1.889c5.003-8.765 1.872-41.953 1.872-41.953z" fill="#f6a091"/><path d="m405.194 277.695 22.167-3.629-20.825 37.131z" fill="url(#a)"/><path d="m428.355 187.942c-1.773 4.49-4.059 7.77-5.12 7.356-1.06-.414-.48-4.391 1.293-8.864 1.772-4.49 4.058-7.771 5.119-7.357 1.06.414.48 4.391-1.292 8.865z" stroke="#0553dd" stroke-miterlimit="10"/><path d="m424.263 186.798c.977.249 26.722 9.842 26.722 9.842" stroke="#0553dd" stroke-miterlimit="10" stroke-width=".75"/><path d="m447.257 188.969c.928 2.949-.977 6.826 1.293 8.93 1.259 1.177 3.197 1.094 4.87 1.508 3.032.746 5.467 3.496 5.848 6.595.381 3.098-1.325 6.362-4.092 7.82-.828.431-1.772.746-2.435 1.392-1.276 1.259-1.176 3.363-.563 5.037.613 1.673 1.623 3.214 1.955 4.987.58 3.165-1.193 6.23-2.353 9.229-3.711 9.676-1.126 20.628 2.833 30.221 2.999 7.257 6.892 14.349 12.773 19.535 5.898 5.186 14.082 8.234 21.736 6.495 7.654-1.757 14.115-9.097 13.386-16.917-.265-2.9-1.425-5.65-2.485-8.367-3.015-7.754-5.268-16.569-2.038-24.24 1.723-4.109 4.954-7.622 5.683-12.029.961-5.667-2.585-11.267-7.107-14.813-4.523-3.545-10.007-5.617-15.043-8.417-5.02-2.8-9.874-6.743-11.547-12.244-1.193-3.894-.68-8.202-2.088-12.029-1.905-5.169-7.206-8.599-12.673-9.345-4.391-.596-15.557.282-17.677 5.369-2.452 5.832 8.233 6.561 9.724 11.283z" fill="#0553dd"/><path d="m489.586 215.247c2.684-4.225 3.065-10.505-.795-13.686-1.607-1.325-3.761-1.955-5.202-3.463-2.286-2.369-2.203-6.064-2.7-9.328-.945-6.114-4.622-11.764-9.825-15.127-5.202-3.364-11.845-4.407-17.826-2.817-1.424.381-2.899.961-3.744 2.171-1.342 1.922-.53 4.689 1.011 6.461 1.541 1.773 3.678 2.917 5.434 4.474 4.672 4.142 6.312 10.604 8.582 16.42 2.799 7.141 6.941 13.735 12.093 19.418 7.075 7.788 8.566 2.403 12.972-4.523z" fill="#0553dd"/><path d="m509.649 245.618c1.889 4.109 2.17 8.88 1.209 13.304-.861 4.027-2.717 7.837-5.367 10.985-1.193 1.425-2.568 2.734-4.275 3.447-1.954.812-4.141.778-6.262.596-7.24-.596-15.109-3.131-18.571-9.51-3.96-7.291-1.972-27.306 7.637-29.89 8.482-2.27 22.034 3.231 25.629 11.068z" fill="#0553dd"/><path d="m551 91.1801c-3.065-8.5163-11.183-14.6302-20.758-14.6302-4.357 0-8.416 1.2758-11.829 3.4629-4.324-11.6147-15.507-19.8826-28.628-19.8826-12.094 0-22.531 7.0252-27.484 17.215-1.856-.5136-3.811-.8119-5.832-.8119-9.576 0-17.693 6.0973-20.758 14.6302h115.289z" fill="#6976ea" opacity=".32"/><path d="m115.289 116.033c-3.065-8.516-11.182-14.63-20.758-14.63-4.3571 0-8.416 1.276-11.8288 3.463-4.324-11.6148-15.5067-19.8826-28.6277-19.8826-12.0939 0-22.531 7.0252-27.4846 17.2146-1.8555-.513-3.8104-.812-5.8315-.812-9.5757 0-17.69352 6.098-20.7584 14.631h115.289z" fill="#6976ea" opacity=".32"/></g></svg>