<svg fill="none" height="48" viewBox="0 0 176 48" width="176" xmlns="http://www.w3.org/2000/svg"><circle cx="24" cy="24" fill="#0fc4a5" r="24"/><path d="m19.35 21.1c-.2167-1.3833-.7-2.4333-1.45-3.15s-1.7083-1.0667-2.875-1.05c-.7167 0-1.35.2-1.9.6-.5333.4-.8.9167-.8 1.55 0 .7667.3333 1.4 1 1.9s1.6833 1.0333 3.05 1.6c.6333.25 1.2833.5417 1.95.875s1.2833.7333 1.85 1.2c.5667.45 1.025.9833 1.375 1.6.35.6.525 1.3083.525 2.125 0 .9833-.2667 1.8583-.8 2.625s-1.2833 1.3667-2.25 1.8c-.95.4167-2.0667.625-3.35.625-.6667 0-1.3917-.1083-2.175-.325-.7667-.2-1.4917-.5-2.175-.9l.075 1.05h-1.925v-5.85h1.65c.2333 1.4.7667 2.4583 1.6 3.175.85.7 1.8583 1.05 3.025 1.05.8833 0 1.6-.2333 2.15-.7.5667-.4667.85-1.0167.85-1.65 0-.5833-.2083-1.0667-.625-1.45-.4-.3833-.9083-.7083-1.525-.975-.6-.2667-1.2167-.525-1.85-.775-1.0667-.4333-2.0333-.9167-2.9-1.45-.85-.55-1.525-1.2-2.025-1.95-.5-.7667-.75-1.6917-.75-2.775 0-.5167.1-1.05.3-1.6.2-.5667.525-1.0833.975-1.55.45-.4833 1.05-.875 1.8-1.175s1.675-.45 2.775-.45c.6667 0 1.3917.1 2.175.3.8.2 1.4833.5 2.05.9l-.1-1.025h1.95v5.825zm4.8414 11.9v-1.65c.3833-.0167.7-.0667.95-.15.2667-.0833.4667-.275.6-.575.15-.3.225-.7833.225-1.45v-9.575c0-.45.0083-.8833.025-1.3.0333-.4167.0583-.7333.075-.95-.2667.0167-.6.0333-1 .05-.4 0-.6917.0083-.875.025v-1.925c1.15-.0167 2.3-.025 3.45-.025 1.1667 0 2.325-.0083 3.475-.025 2-.0167 3.5833.3583 4.75 1.125 1.1833.75 1.7333 1.8917 1.65 3.425-.05.7167-.3667 1.4083-.95 2.075-.5833.65-1.4667 1.1333-2.65 1.45v.025c1.6667.2667 2.8917.825 3.675 1.675.7833.8333 1.175 1.7667 1.175 2.8 0 1.0833-.2667 2-.8 2.75-.5167.7333-1.2333 1.2917-2.15 1.675-.9167.3667-1.9583.55-3.125.55zm5.4-9.825 1.3-.025c1.05-.0333 1.775-.3667 2.175-1 .4167-.65.625-1.4333.625-2.35 0-.6667-.1333-1.1833-.4-1.55-.2667-.3833-.6-.6583-1-.825s-.8167-.2417-1.25-.225c-.2667 0-.5083.0417-.725.125s-.3917.275-.525.575c-.1333.2833-.2.75-.2 1.4zm-.1 8.05h1.25c.4 0 .7917-.0083 1.175-.025 1.0167-.05 1.7583-.375 2.225-.975s.7-1.3583.7-2.275c0-.7667-.1583-1.3667-.475-1.8-.3167-.45-.725-.7667-1.225-.95-.4833-.1833-.9917-.275-1.525-.275-.4167 0-.775 0-1.075 0s-.6167.0083-.95.025v4.075c0 .45-.0083.875-.025 1.275s-.0417.7083-.075.925z" fill="#fff"/><path d="m67.89 19.34c-.3033-1.9367-.98-3.4067-2.03-4.41s-2.3917-1.4933-4.025-1.47c-1.0033 0-1.89.28-2.66.84-.7467.56-1.12 1.2833-1.12 2.17 0 1.0733.4667 1.96 1.4 2.66s2.3567 1.4467 4.27 2.24c.8867.35 1.7967.7583 2.73 1.225s1.7967 1.0267 2.59 1.68c.7933.63 1.435 1.3767 1.925 2.24.49.84.735 1.8317.735 2.975 0 1.3767-.3733 2.6017-1.12 3.675s-1.7967 1.9133-3.15 2.52c-1.33.5833-2.8933.875-4.69.875-.9333 0-1.9483-.1517-3.045-.455-1.0733-.28-2.0883-.7-3.045-1.26l.105 1.47h-2.695v-8.19h2.31c.3267 1.96 1.0733 3.4417 2.24 4.445 1.19.98 2.6017 1.47 4.235 1.47 1.2367 0 2.24-.3267 3.01-.98.7933-.6533 1.19-1.4233 1.19-2.31 0-.8167-.2917-1.4933-.875-2.03-.56-.5367-1.2717-.9917-2.135-1.365-.84-.3733-1.7033-.735-2.59-1.085-1.4933-.6067-2.8467-1.2833-4.06-2.03-1.19-.77-2.135-1.68-2.835-2.73-.7-1.0733-1.05-2.3683-1.05-3.885 0-.7233.14-1.47.42-2.24.28-.7933.735-1.5167 1.365-2.17.63-.6767 1.47-1.225 2.52-1.645s2.345-.63 3.885-.63c.9333 0 1.9483.14 3.045.42 1.12.28 2.0767.7 2.87 1.26l-.14-1.435h2.73v8.155zm16.088 17.22c-1.68 0-3.1967-.3617-4.55-1.085-1.3534-.7233-2.4267-1.75-3.22-3.08-.77-1.3533-1.155-2.94-1.155-4.76 0-1.9367.3966-3.6283 1.19-5.075.8166-1.47 1.89-2.6017 3.22-3.395 1.3533-.8167 2.8233-1.225 4.41-1.225 1.68 0 3.185.3617 4.515 1.085s2.38 1.7617 3.15 3.115c.77 1.33 1.155 2.9283 1.155 4.795 0 1.96-.3734 3.6633-1.12 5.11-.7467 1.4467-1.7734 2.5667-3.08 3.36-1.3067.77-2.8117 1.155-4.515 1.155zm.14-2.485c.9333-.0233 1.6333-.35 2.1-.98.49-.63.8283-1.4233 1.015-2.38.1866-.9567.28-1.925.28-2.905 0-.8633-.07-1.7383-.21-2.625-.1167-.8867-.315-1.6917-.595-2.415s-.665-1.3067-1.155-1.75c-.4667-.4433-1.05-.6533-1.75-.63-.91.0233-1.6334.35-2.17.98-.5134.63-.8867 1.4233-1.12 2.38-.21.9333-.315 1.9133-.315 2.94 0 1.19.1283 2.3567.385 3.5.2566 1.1433.665 2.0883 1.225 2.835.5833.7233 1.3533 1.0733 2.31 1.05zm14.1925-16.59c0-2.8233.6183-4.8417 1.8545-6.055 1.237-1.2367 2.905-1.855 5.005-1.855 1.097 0 1.972.16333 2.625.49.654.3033 1.12.6883 1.4 1.155s.42.945.42 1.435c0 .6067-.186 1.1433-.56 1.61-.373.4667-.91.7117-1.61.735-.676.0233-1.201-.1517-1.575-.525-.373-.3967-.56-.8867-.56-1.47 0-.1167 0-.2333 0-.35.024-.1167.047-.2333.07-.35-.116-.1167-.256-.1867-.42-.21-.14-.0467-.268-.07-.385-.07-.583.0233-.968.2683-1.155.735-.163.4433-.245.9217-.245 1.435v4.305h3.92v2.695l-3.885.105.035 8.995c0 .3267-.011.805-.035 1.435-.023.6067-.058 1.1783-.105 1.715.397-.0467.84-.07 1.33-.07.514-.0233.887-.035 1.12-.035v2.66h-9.3445v-2.275c.98 0 1.575-.28 1.785-.84.21-.5833.315-1.3417.315-2.275v-9.24l-2.555.035v-2.905h2.555zm18.7295 19.075c-.7 0-1.376-.0817-2.03-.245-.63-.1633-1.213-.4667-1.75-.91-.513-.4667-.921-1.1433-1.225-2.03-.303-.8867-.455-2.065-.455-3.535l.07-8.435h-2.38v-2.905c.724-.0233 1.424-.2683 2.1-.735.677-.4667 1.249-1.0733 1.715-1.82.49-.7467.817-1.5283.98-2.345h2.59l-.035 4.9h4.445v2.695l-4.445.105-.035 8.61c0 .5367.047 1.0733.14 1.61.117.5133.327.945.63 1.295.304.3267.747.49 1.33.49.327 0 .77-.1167 1.33-.35.584-.2333 1.202-.8167 1.855-1.75l1.68 1.575c-.63.9333-1.283 1.6567-1.96 2.17-.676.5133-1.33.8867-1.96 1.12-.606.2333-1.143.3733-1.61.42-.466.0467-.793.07-.98.07zm8.757-.56v-2.31c.536-.0233.98-.0933 1.33-.21.373-.1167.653-.385.84-.805.21-.42.315-1.0967.315-2.03v-13.405c0-.63.011-1.2367.035-1.82.046-.5833.081-1.0267.105-1.33-.374.0233-.84.0467-1.4.07-.56 0-.969.0117-1.225.035v-2.695c1.61-.0233 3.22-.035 4.83-.035 1.633 0 3.255-.0117 4.865-.035 2.8-.0233 5.016.5017 6.65 1.575 1.656 1.05 2.426 2.6483 2.31 4.795-.07 1.0033-.514 1.9717-1.33 2.905-.817.91-2.054 1.5867-3.71 2.03v.035c2.333.3733 4.048 1.155 5.145 2.345 1.096 1.1667 1.645 2.4733 1.645 3.92 0 1.5167-.374 2.8-1.12 3.85-.724 1.0267-1.727 1.8083-3.01 2.345-1.284.5133-2.742.77-4.375.77zm7.56-13.755 1.82-.035c1.47-.0467 2.485-.5133 3.045-1.4.583-.91.875-2.0067.875-3.29 0-.9333-.187-1.6567-.56-2.17-.374-.5367-.84-.9217-1.4-1.155s-1.144-.3383-1.75-.315c-.374 0-.712.0583-1.015.175-.304.1167-.549.385-.735.805-.187.3967-.28 1.05-.28 1.96zm-.14 11.27h1.75c.56 0 1.108-.0117 1.645-.035 1.423-.07 2.461-.525 3.115-1.365.653-.84.98-1.9017.98-3.185 0-1.0733-.222-1.9133-.665-2.52-.444-.63-1.015-1.0733-1.715-1.33-.677-.2567-1.389-.385-2.135-.385-.584 0-1.085 0-1.505 0s-.864.0117-1.33.035v5.705c0 .63-.012 1.225-.035 1.785-.024.56-.059.9917-.105 1.295zm16.044.21c.957 0 1.54-.28 1.75-.84.21-.5833.315-1.3417.315-2.275v-5.81c0-.42.012-.8983.035-1.435.024-.56.059-1.0967.105-1.61-.373.0233-.816.0467-1.33.07-.49 0-.863.0117-1.12.035v-2.66c1.61 0 2.847-.1167 3.71-.35.887-.2333 1.447-.4667 1.68-.7h1.89v12.215c0 .3267-.011.7933-.035 1.4-.023.5833-.058 1.1433-.105 1.68.374-.0467.782-.07 1.225-.07.467-.0233.817-.035 1.05-.035v2.66h-9.17zm4.375-18.34c-.793 0-1.446-.28-1.96-.84-.513-.56-.77-1.2367-.77-2.03s.269-1.47.805-2.03c.537-.56 1.167-.84 1.89-.84.747 0 1.365.28 1.855.84.514.56.77 1.2367.77 2.03s-.233 1.47-.7 2.03c-.466.56-1.096.84-1.89.84zm14.919 21.175c-.7 0-1.377-.0817-2.03-.245-.63-.1633-1.214-.4667-1.75-.91-.514-.4667-.922-1.1433-1.225-2.03-.304-.8867-.455-2.065-.455-3.535l.07-8.435h-2.38v-2.905c.723-.0233 1.423-.2683 2.1-.735.676-.4667 1.248-1.0733 1.715-1.82.49-.7467.816-1.5283.98-2.345h2.59l-.035 4.9h4.445v2.695l-4.445.105-.035 8.61c0 .5367.046 1.0733.14 1.61.116.5133.326.945.63 1.295.303.3267.746.49 1.33.49.326 0 .77-.1167 1.33-.35.583-.2333 1.201-.8167 1.855-1.75l1.68 1.575c-.63.9333-1.284 1.6567-1.96 2.17-.677.5133-1.33.8867-1.96 1.12-.607.2333-1.144.3733-1.61.42-.467.0467-.794.07-.98.07z" fill="#0fc4a5"/></svg>