<svg fill="none" height="578" viewBox="0 0 556 578" width="556" xmlns="http://www.w3.org/2000/svg"><path d="m194.035 438.504v6.583l-15.211-8.772c-2.593-1.505-4.73-5.159-4.73-8.195v-58.583l15.816-9.122c.323 4.017.685 8.168 1.008 12.211l-11.086 6.422v45.768c0 3.035 2.11 6.689 4.73 8.194z" fill="#263238"/><path d="m116.02 485.132s-2.097-1.021-2.097-3.52v-223.762c0-1.84 0-6.636 0-6.636l-7.43-4.299-.014 229.136c0 .282.014.564.054.846.269 1.894 1.384 3.573 3.037 4.514l6.141 3.546z" fill="#ebebeb"/><path d="m114.769 232.891c-.524.913-.846 1.948-.846 2.875v15.542l-7.431-4.285v-15.556c0-.927.323-1.948.847-2.861z" fill="#27debf"/><path d="m114.769 232.891c-.524.913-.846 1.948-.846 2.875v15.542l-7.431-4.285v-15.556c0-.927.323-1.948.847-2.861z" fill="#000" opacity=".5"/><path d="m412.967 70.3452c0 1.7464 1.222 2.4449 2.727 1.5718 1.505-.8732 2.728-2.9823 2.728-4.7286 0-1.7464-1.223-2.4449-2.728-1.5718-1.505.8732-2.727 2.9957-2.727 4.7286z" fill="#fafafa"/><path d="m402.056 76.6456c0 1.7463 1.222 2.4449 2.727 1.5717s2.728-2.9822 2.728-4.7286c0-1.7463-1.223-2.4449-2.728-1.5717s-2.727 2.9957-2.727 4.7286z" fill="#fafafa"/><path d="m391.145 82.9459c0 1.7463 1.223 2.4449 2.728 1.5717s2.728-2.9822 2.728-4.7286-1.223-2.4449-2.728-1.5717-2.728 2.9957-2.728 4.7286z" fill="#fafafa"/><path d="m113.923 251.308v230.304c0 3.063 3.319 4.998 5.98 3.466l5.576-3.21 68.328-39.388v-237.222z" fill="#fafafa"/><path d="m175.519 232.286-50.967 29.447c-.94.55-1.706 1.867-1.706 2.955v5.306c0 1.088.766 1.532 1.706.981l50.967-29.446c.941-.551 1.707-1.868 1.707-2.956v-5.306c0-1.088-.766-1.531-1.707-.981z" fill="#27debf"/><path d="m175.519 232.286-50.967 29.447c-.94.55-1.706 1.867-1.706 2.955v5.306c0 1.088.766 1.532 1.706.981l50.967-29.446c.941-.551 1.707-1.868 1.707-2.956v-5.306c0-1.088-.766-1.531-1.707-.981z" fill="#fafafa" opacity=".8"/><g fill="#455a64"><path d="m186.874 234.395-1.505-1.45c.295-.753.484-1.586.484-2.405 0-1.223-.404-2.163-1.129-2.579-.538-.309-1.196-.282-1.828.08-1.316.766-2.365 2.902-2.365 4.877 0 1.222.404 2.162 1.129 2.579.256.148.524.215.806.215.336 0 .686-.094 1.022-.296.497-.282.954-.765 1.33-1.37l1.236 1.182c.108.108.255.161.403.161.162 0 .309-.067.43-.174.229-.229.215-.605-.013-.82zm-3.978 0c-.255.148-.483.175-.645.081-.241-.148-.537-.631-.537-1.558 0-1.532.806-3.305 1.774-3.856.161-.094.295-.134.43-.134.08 0 .147.013.215.054.242.147.537.631.537 1.558-.013 1.545-.82 3.305-1.774 3.855z"/><path d="m124.094 286.531-1.142.658c-.067.04-.121 0-.121-.094v-3.09c0-.094.054-.188.121-.228l1.142-.658c.067-.041.121 0 .121.094v3.089c0 .094-.054.188-.121.229z"/><path d="m125.8 285.55-1.142.658c-.067.041-.121 0-.121-.094v-3.089c0-.094.054-.188.121-.229l1.142-.658c.068-.04.121 0 .121.094v3.09c0 .08-.053.188-.121.228z"/><path d="m127.521 284.556-1.142.658c-.067.041-.121 0-.121-.094v-3.089c0-.094.054-.188.121-.229l1.142-.658c.067-.04.121 0 .121.094v3.09c0 .094-.054.188-.121.228z"/><path d="m124.094 290.521-1.142.658c-.067.04-.121 0-.121-.094v-3.09c0-.094.054-.188.121-.228l1.142-.658c.067-.041.121 0 .121.094v3.089c0 .094-.054.188-.121.229z"/><path d="m125.8 289.54-1.142.658c-.067.04-.121 0-.121-.094v-3.09c0-.094.054-.188.121-.228l1.142-.658c.068-.04.121 0 .121.094v3.09c0 .08-.053.188-.121.228z"/><path d="m127.521 288.546-1.142.658c-.067.04-.121 0-.121-.094v-3.09c0-.094.054-.188.121-.228l1.142-.658c.067-.041.121 0 .121.094v3.089c0 .094-.054.188-.121.229z"/><path d="m124.269 301.066-1.411-.86c-.054-.027-.054-.161 0-.255l1.411-2.485c.067-.121.161-.108.161.027v3.344c.014.135-.094.269-.161.229z"/><path d="m123.677 299.172 1.855-1.075v.887l-1.855 1.074c-.161.094-.282-.026-.282-.268 0-.256.134-.524.282-.618z"/><path d="m125.881 297.909.631-.376v.886l-.631.363z"/><path d="m128.218 296.995v3.238c0 .242-.134.51-.282.604-.161.094-.282-.026-.282-.268v-2.794l-.779.456v-.886l1.075-.618c.134-.094.268.027.268.268z"/><path d="m124.82 308.32c-1.317.9-2.204 3.399-1.949 5.239.229 1.693 1.237 1.625 1.344 2.405.014.08.067.121.135.08l1.249-.712c.067-.04.121-.134.135-.228.134-1.035 1.41-2.284 1.424-4.782-.014-1.935-1.062-2.875-2.338-2.002z"/><path d="m125.571 317.361-1.209.698c-.081.054-.148 0-.148-.107v-1.115c0-.108.067-.242.148-.282l1.209-.699c.081-.054.148 0 .148.108v1.115c0 .094-.067.228-.148.282z"/><path d="m125.116 282.192c-1.115.913-2.015 2.821-2.19 4.634-.108 1.062.027 1.921.322 2.539l-.403 2.109c-.027.175.067.269.161.162l1.223-1.33c.511.161 1.116.013 1.774-.524 1.115-.927 2.016-2.821 2.19-4.648.282-2.942-1.263-4.433-3.077-2.942zm.43 6.931c-1.115.645-2.029-.228-2.029-1.961 0-1.719.914-3.654 2.029-4.299 1.115-.644 2.029.229 2.029 1.962.014 1.719-.9 3.654-2.029 4.298z"/><path d="m125.116 322.962c-1.115.914-2.015 2.821-2.19 4.635-.108 1.061.027 1.921.322 2.539l-.403 2.109c-.027.175.067.269.161.161l1.223-1.33c.511.161 1.116.014 1.774-.524 1.115-.927 2.016-2.821 2.19-4.648.282-2.955-1.263-4.433-3.077-2.942zm.43 6.919c-1.115.644-2.029-.229-2.029-1.962 0-1.719.914-3.654 2.029-4.298 1.115-.645 2.029.228 2.029 1.961.014 1.733-.9 3.654-2.029 4.299z"/><path d="m126.835 337.901c0 .913-.484 1.934-1.075 2.27s-1.075-.121-1.075-1.035c0-.913.484-1.934 1.075-2.27s1.075.121 1.075 1.035z"/><path d="m128.676 338.223c0 .604-.322 1.29-.712 1.518s-.712-.081-.712-.685c0-.605.322-1.29.712-1.518s.712.08.712.685z"/><path d="m127.023 344.402-2.54 1.465v-3.211c0-.672.417-1.464.914-1.746l.699-.403c.51-.296.913.013.913.698v3.197z"/><path d="m128.071 340.104-.698.403v3.694l1.316-.766v-2.875c0-.443-.282-.644-.618-.456z"/><path d="m122.844 341.595c0 .604.322.913.712.685s.712-.9.712-1.518c0-.605-.322-.914-.712-.685-.39.228-.712.9-.712 1.518z"/><path d="m123.449 342.777.699-.403v3.694l-1.317.766v-2.875c0-.457.269-.981.618-1.182z"/></g><path d="m135.221 279.29 29.844-17.222c.806-.47 1.451-.134 1.451.739s-.645 1.948-1.451 2.418l-29.844 17.222c-.806.47-1.451.134-1.451-.739s.645-1.961 1.451-2.418z" fill="#e0e0e0"/><path d="m135.221 293.328 29.844-17.222c.806-.47 1.451-.134 1.451.739s-.645 1.948-1.451 2.418l-29.844 17.222c-.806.47-1.451.134-1.451-.739s.645-1.948 1.451-2.418z" fill="#e0e0e0"/><path d="m135.221 307.366 29.844-17.222c.806-.47 1.451-.134 1.451.739s-.645 1.948-1.451 2.418l-29.844 17.222c-.806.47-1.451.134-1.451-.739s.645-1.948 1.451-2.418z" fill="#e0e0e0"/><path d="m135.221 321.418 29.844-17.222c.806-.47 1.451-.134 1.451.739s-.645 1.948-1.451 2.418l-29.844 17.222c-.806.47-1.451.134-1.451-.739s.645-1.962 1.451-2.418z" fill="#e0e0e0"/><path d="m135.221 335.456 29.844-17.222c.806-.47 1.451-.134 1.451.739s-.645 1.948-1.451 2.418l-29.844 17.221c-.806.471-1.451.135-1.451-.738 0-.874.645-1.962 1.451-2.418z" fill="#e0e0e0"/><path d="m140.677 346.914 29.844-17.221c.806-.47 1.451-.135 1.451.739 0 .873-.645 1.947-1.451 2.418l-29.844 17.221c-.806.471-1.451.135-1.451-.738 0-.874.658-1.948 1.451-2.419z" fill="#455a64"/><path d="m140.677 356.412 29.844-17.222c.806-.47 1.451-.134 1.451.739s-.645 1.948-1.451 2.418l-29.844 17.222c-.806.47-1.451.134-1.451-.739s.658-1.961 1.451-2.418z" fill="#e0e0e0"/><path d="m140.677 365.896 29.844-17.222c.806-.47 1.451-.134 1.451.739s-.645 1.948-1.451 2.418l-29.844 17.222c-.806.47-1.451.134-1.451-.739s.658-1.961 1.451-2.418z" fill="#e0e0e0"/><path d="m146.495 371.914 29.844-17.222c.806-.47 1.451-.134 1.451.739s-.645 1.948-1.451 2.418l-29.844 17.222c-.807.47-1.452.134-1.452-.739s.645-1.948 1.452-2.418z" fill="#e0e0e0"/><path d="m139.508 380.082 2.419-4.272c.094-.161.094-.376 0-.43l-2.419-1.478c-.121-.067-.282.162-.282.377v5.749c0 .229.175.255.282.054z" fill="#455a64"/><path d="m146.495 381.371 29.844-17.221c.806-.471 1.451-.135 1.451.738 0 .874-.645 1.948-1.451 2.419l-29.844 17.221c-.807.47-1.452.135-1.452-.739 0-.873.645-1.947 1.452-2.418z" fill="#e0e0e0"/><path d="m139.508 389.539 2.419-4.272c.094-.161.094-.376 0-.43l-2.419-1.477c-.121-.068-.282.161-.282.376v5.749c0 .229.175.256.282.054z" fill="#455a64"/><path d="m146.495 390.829 29.844-17.222c.806-.47 1.451-.135 1.451.739 0 .873-.645 1.948-1.451 2.418l-29.844 17.221c-.806.471-1.451.135-1.451-.738-.014-.874.645-1.962 1.451-2.418z" fill="#e0e0e0"/><path d="m139.508 398.983 2.419-4.272c.094-.161.094-.376 0-.43l-2.419-1.478c-.121-.067-.282.162-.282.376v5.75c0 .228.175.269.282.054z" fill="#455a64"/><path d="m146.495 400.272 29.844-17.221c.806-.471 1.451-.135 1.451.738 0 .874-.645 1.948-1.451 2.418l-29.844 17.222c-.806.47-1.451.135-1.451-.739-.014-.873.645-1.947 1.451-2.418z" fill="#e0e0e0"/><path d="m139.508 408.44 2.419-4.272c.094-.161.094-.376 0-.43l-2.419-1.477c-.121-.068-.282.161-.282.376v5.749c0 .229.175.255.282.054z" fill="#455a64"/><path d="m146.495 409.73 29.844-17.222c.806-.47 1.451-.135 1.451.739 0 .873-.645 1.947-1.451 2.418l-29.844 17.221c-.806.471-1.451.135-1.451-.738-.014-.874.645-1.948 1.451-2.418z" fill="#e0e0e0"/><path d="m139.508 417.897 2.419-4.272c.094-.161.094-.376 0-.43l-2.419-1.477c-.121-.067-.282.161-.282.376v5.749c0 .229.175.256.282.054z" fill="#455a64"/><path d="m146.495 419.187 29.844-17.222c.806-.47 1.451-.134 1.451.739s-.645 1.948-1.451 2.418l-29.844 17.222c-.806.47-1.451.134-1.451-.739-.014-.873.645-1.961 1.451-2.418z" fill="#e0e0e0"/><path d="m139.508 427.341 2.419-4.272c.094-.161.094-.376 0-.43l-2.419-1.478c-.121-.067-.282.162-.282.377v5.749c0 .229.175.269.282.054z" fill="#455a64"/><path d="m146.495 428.631 29.844-17.222c.806-.47 1.451-.135 1.451.739 0 .873-.645 1.947-1.451 2.418l-29.844 17.221c-.806.471-1.451.135-1.451-.738-.014-.874.645-1.948 1.451-2.418z" fill="#e0e0e0"/><path d="m139.508 436.798 2.419-4.272c.094-.161.094-.376 0-.43l-2.419-1.477c-.121-.067-.282.161-.282.376v5.749c0 .229.175.256.282.054z" fill="#455a64"/><path d="m146.495 438.088 29.844-17.222c.806-.47 1.451-.134 1.451.739s-.645 1.948-1.451 2.418l-29.844 17.222c-.806.47-1.451.134-1.451-.739-.014-.873.645-1.948 1.451-2.418z" fill="#e0e0e0"/><path d="m139.508 446.255 2.419-4.272c.094-.161.094-.376 0-.429l-2.419-1.478c-.121-.067-.282.161-.282.376v5.75c0 .228.175.255.282.053z" fill="#455a64"/><path d="m214.728 222.185c0-.014 0-.027.013-.054l.645-2.687-.887.511c-.027.013-.04.013-.053 0-.014-.014-.027-.041-.027-.081v-.484c0-.04.013-.067.027-.107.013-.04.04-.054.053-.067l1.425-.82c.027-.013.04-.013.053 0 .014.014.027.041.027.081v.43c0 .054-.013.134-.053.255l-.645 2.687c-.014.027-.014.067-.027.094-.014.027-.027.053-.054.067l-.417.242c-.013.013-.04.013-.053 0-.014-.014-.027-.041-.027-.067z" fill="#455a64"/><path d="m217.106 217.657c.148-.08.282-.121.39-.121.107 0 .201.041.268.121.067.068.121.175.162.309.04.135.053.282.053.444v.416.403c0 .175-.027.336-.053.511-.041.174-.095.335-.162.483s-.161.296-.268.43c-.108.134-.242.242-.39.322-.148.081-.282.121-.39.121-.107 0-.201-.04-.269-.121-.067-.067-.121-.174-.161-.308-.04-.135-.054-.283-.067-.444 0-.121 0-.255 0-.403s0-.282 0-.416c0-.175.027-.336.067-.511.04-.174.081-.336.161-.483.068-.162.162-.296.269-.43.121-.121.242-.229.39-.323zm.322 1.854c.014-.268.014-.524 0-.765 0-.081-.013-.135-.027-.202-.013-.054-.026-.107-.053-.134s-.054-.054-.094-.054c-.041 0-.094.013-.148.04-.054.041-.108.081-.148.121-.04.054-.067.108-.094.175s-.04.121-.054.201c-.013.067-.013.148-.013.229-.014.255-.014.51 0 .765 0 .081.013.148.013.202.014.054.027.107.054.134s.054.054.094.054.094-.013.148-.04c.054-.041.107-.081.148-.121.04-.054.067-.108.094-.175s.04-.134.053-.201c.014-.068.027-.148.027-.229z" fill="#455a64"/><path d="m219.176 217.147v.349c0 .094-.014.188-.041.269-.013.094-.053.175-.08.255-.041.081-.094.161-.148.229-.054.067-.121.12-.202.161-.08.04-.147.067-.201.067s-.108-.027-.148-.054c-.04-.04-.067-.094-.081-.161-.026-.067-.026-.148-.04-.228 0-.054 0-.121 0-.175s0-.108 0-.175c0-.094.014-.188.04-.282.014-.094.054-.174.081-.255.04-.081.081-.161.148-.228.054-.068.121-.121.201-.162.081-.04.148-.067.202-.067s.107.014.148.054c.04.04.067.094.094.161.013.067.013.148.027.242zm.739-.967c.013-.041.027-.067.04-.094.014-.027.04-.041.067-.054l.242-.148c.027-.013.04-.013.054 0 .013.014.013.027.013.054v.027c0 .013 0 .027-.013.027l-1.478 3.828c-.014.041-.027.067-.041.094-.013.027-.04.041-.067.054l-.242.134c-.026.014-.04.014-.053 0-.014-.013-.014-.027-.014-.053 0 0 0-.014 0-.027 0-.014 0-.027.014-.027zm-1.331 1.625c0 .081.014.135.027.161.014.027.054.027.094.014.041-.027.068-.067.094-.108.014-.053.027-.121.027-.201 0-.108 0-.202 0-.309 0-.081-.013-.134-.027-.161-.013-.027-.04-.027-.094 0-.04.027-.067.067-.094.107-.013.054-.027.121-.027.202-.013.107-.013.201 0 .295zm1.976.148v.349c0 .094-.014.188-.041.269-.013.094-.053.175-.08.255-.041.081-.081.161-.148.229-.054.067-.121.12-.202.161-.08.04-.147.067-.201.067s-.108-.014-.148-.054-.067-.094-.081-.161c-.013-.067-.026-.148-.04-.228 0-.054 0-.121 0-.175s0-.108 0-.175c0-.094.014-.188.04-.268.027-.094.054-.175.081-.256.04-.08.081-.161.148-.228.054-.067.121-.121.201-.175.081-.04.148-.067.202-.067s.107.014.148.054c.04.04.067.094.08.161.027.081.027.148.041.242zm-.592.672c0 .08.014.134.027.161.014.027.041.027.094 0 .041-.027.068-.067.094-.108.014-.053.027-.12.027-.201 0-.108 0-.202 0-.309 0-.081-.013-.134-.027-.161-.013-.027-.053-.027-.094-.014-.04.027-.08.067-.094.108-.013.053-.027.121-.027.201-.013.121-.013.215 0 .323z" fill="#455a64"/><path d="m214.714 214.487-.981-1.518c-1.075 1.841-1.908 4.03-2.325 6.274l1.586-.121c.309-1.666.927-3.292 1.72-4.635z" fill="#455a64"/><path d="m217.496 211.478v-2.579c-1.411.806-2.701 2.256-3.763 4.057l.981 1.518c.78-1.317 1.734-2.392 2.782-2.996z" fill="#455a64"/><path d="m212.766 221.499c0-.779.081-1.585.228-2.377l-1.585.12c-.202 1.075-.309 2.163-.309 3.225 0 1.061.107 2.028.309 2.861l1.585-1.72c-.147-.618-.228-1.33-.228-2.109z" fill="#455a64"/><path d="m223.582 212.203c-.416-1.759-1.249-2.995-2.324-3.586-1.062-.578-2.352-.524-3.763.282v2.579c1.035-.605 2.003-.631 2.782-.202.793.43 1.411 1.344 1.72 2.647.148.618.228 1.33.228 2.109s-.08 1.585-.228 2.378c-.309 1.652-.927 3.277-1.72 4.634-.779 1.33-1.733 2.405-2.782 2.996-1.034.604-2.002.631-2.781.201-.793-.43-1.411-1.343-1.72-2.646l-1.586 1.719c.417 1.76 1.25 2.996 2.325 3.587 1.062.578 2.352.524 3.762-.282 1.411-.806 2.701-2.257 3.763-4.057 1.075-1.84 1.908-4.03 2.324-6.273.202-1.075.31-2.163.31-3.224 0-1.062-.108-2.015-.31-2.862z" fill="#27debf"/><path d="m215.642 327.248c.779-.443 1.397-.081 1.397.806 0 .9-.631 1.988-1.397 2.431-.78.444-1.398.081-1.398-.806 0-.9.618-1.988 1.398-2.431z" fill="#27debf"/><path d="m215.642 320.948c.779-.444 1.397-.081 1.397.806 0 .886-.631 1.988-1.397 2.431-.78.443-1.398.081-1.398-.806 0-.9.618-1.988 1.398-2.431z" fill="#27debf"/><path d="m215.642 320.948c.779-.444 1.397-.081 1.397.806 0 .886-.631 1.988-1.397 2.431-.78.443-1.398.081-1.398-.806 0-.9.618-1.988 1.398-2.431z" fill="#000" opacity=".0081"/><path d="m215.642 276.832c.779-.443 1.398-.081 1.398.806 0 .9-.632 1.988-1.398 2.431-.779.444-1.397.081-1.397-.806 0-.886.618-1.974 1.397-2.431z" fill="#27debf"/><path d="m215.642 276.832c.779-.443 1.398-.081 1.398.806 0 .9-.632 1.988-1.398 2.431-.779.444-1.397.081-1.397-.806 0-.886.618-1.974 1.397-2.431z" fill="#000" opacity=".3"/><path d="m215.642 283.132c.779-.443 1.397-.08 1.397.806 0 .9-.631 1.988-1.397 2.432-.78.443-1.398.08-1.398-.806 0-.887.618-1.975 1.398-2.432z" fill="#27debf"/><path d="m217.805 348.674c.04-.04.081-.08.134-.12.054-.041.108-.081.148-.108.296-.175.578-.255.82-.255.255 0 .47.094.658.242.188.161.323.389.43.685.108.295.161.658.161 1.074 0 .417-.053.833-.161 1.263-.107.417-.242.82-.43 1.196s-.403.712-.658 1.007c-.255.296-.524.538-.82.699-.295.174-.578.255-.833.255s-.47-.094-.658-.255-.323-.39-.43-.685c-.108-.296-.162-.659-.162-1.075 0-.242.014-.47.054-.699.04-.228.081-.443.135-.658.053-.215.12-.416.188-.631.067-.202.134-.403.201-.591l1.451-4.138c.027-.053.054-.121.094-.201.027-.081.081-.135.162-.188l.457-.269c.053-.027.08-.027.121.013.026.041.04.094.04.162 0 .04 0 .08-.014.107-.013.027-.013.054-.026.081zm-1.035 3.493c0 .242.027.457.094.645.068.188.148.336.256.443.107.108.242.161.416.175.161.013.35-.04.551-.161.202-.121.39-.269.551-.47.161-.202.296-.417.417-.645.107-.242.201-.484.255-.739s.094-.511.094-.752c0-.242-.027-.457-.094-.645s-.148-.336-.255-.444c-.108-.107-.256-.161-.417-.174-.161-.014-.349.04-.551.161-.201.121-.39.269-.551.47-.161.202-.295.417-.416.645-.108.242-.202.484-.256.739-.053.255-.094.497-.094.752z" fill="#455a64"/><path d="m218.436 391.487c0 .094-.027.175-.067.269-.041.094-.094.148-.148.188l-.323.188c-.053.04-.107.027-.147-.014-.041-.04-.068-.107-.068-.201v-6.771l-1.29 2.257c-.053.094-.107.148-.161.161-.054.014-.107 0-.148-.04l-.188-.269c-.04-.053-.054-.12-.04-.214.013-.095.04-.189.08-.269l1.707-3.009c.04-.067.081-.121.134-.161.041-.027.081-.054.121-.081l.323-.188c.054-.04.107-.027.148.013.04.041.067.108.067.202z" fill="#455a64"/><path d="m221.916 385.281c.162-.309.282-.605.363-.887s.121-.604.121-.967c0-.43-.081-.752-.242-.954-.161-.188-.43-.188-.779.014-.188.107-.35.241-.471.389-.134.161-.241.336-.322.524s-.161.403-.202.618c-.053.215-.094.43-.12.645-.014.094-.041.188-.081.255s-.081.121-.121.148l-.363.215c-.054.027-.094.027-.121-.014-.04-.04-.054-.094-.054-.161 0-.309.054-.645.135-1.007.08-.363.201-.712.363-1.062.161-.349.349-.671.591-.967.228-.295.497-.537.793-.698.295-.175.551-.242.779-.242.228.013.417.094.564.242.148.147.269.362.336.644.081.283.121.592.121.954 0 .269-.013.511-.04.739s-.067.457-.134.685c-.068.229-.135.457-.242.699-.094.228-.215.483-.35.752l-1.787 3.587 2.446-1.411c.054-.04.107-.027.148.014.04.04.067.107.067.201v.443c0 .095-.027.175-.067.269-.041.094-.094.148-.148.188l-3.44 1.988c-.054.041-.108.027-.148-.013s-.067-.108-.067-.202v-.443c0-.094.013-.174.04-.255s.067-.188.135-.309z" fill="#455a64"/><path d="m221.917 558.653v18.015c-11.448-1.585-22.305-4.957-31.241-10.129-12.953-7.469-19.417-17.262-19.417-27.055v-18.028c0-1.975.269-3.949.793-5.911h.014c-3.145 11.647 3.063 23.979 18.61 32.966 8.936 5.172 19.793 8.544 31.241 10.142z" fill="#000" opacity=".1"/><path d="m398.549 329.988-63.248-36.579c-3.212-1.854-8.425-1.854-11.637 0l-321.25539 185.436c-3.21148 1.854-3.21148 4.863 0 6.717l63.24869 36.579c3.2115 1.854 8.4251 1.854 11.6365 0l120.3972-69.491 18.503 10.76c9.795 5.655 25.692 5.655 35.487 0l55.173-31.609c9.796-5.656 9.796-14.817 0-20.473l-18.489-10.747 110.198-63.863c3.211-1.867 3.211-4.876-.014-6.73z" fill="#fff3ea"/><path d="m251.681 458.063 47.527-27.471c4.904-2.835 7.35-6.529 7.35-10.237 0-3.707.027-6.609.027-6.609l-44.732-25.376c-2.607-1.504-4.73-5.172-4.73-8.194v-58.584l-83.029 47.958v58.584c0 3.022 2.124 6.689 4.73 8.194l37.369 21.735c9.796 5.656 25.692 5.656 35.488 0z" fill="#37474f"/><path d="m179.833 424.829c0 3.022 2.123 6.69 4.73 8.194l31.631 18.445c9.795 5.655 25.692 5.655 35.487 0l47.554-27.472c9.796-5.656 9.796-14.817 0-20.473l-31.658-18.444c-2.62-1.504-4.729-5.172-4.729-8.194v-45.782l-83.029 47.958v45.768z" fill="#455a64"/><path d="m277.225 390.627-9.635-5.575c-2.62-1.504-4.73-5.172-4.73-8.194v-45.782l-83.028 47.958v45.781c0 3.023 2.123 6.69 4.73 8.195l9.473 5.467z" fill="#000" opacity=".15"/><path d="m306.571 413.746v6.609c0 3.708-2.459 7.402-7.35 10.237l-47.541 27.458c-4.703 2.727-10.79 4.097-16.93 4.205v-6.583c6.14-.08 12.241-1.504 16.93-4.204l47.541-27.485c4.891-2.808 7.35-6.516 7.35-10.237z" fill="#37474f"/><path d="m46.523 488.034c3.0636 1.773 8.1966 1.679 11.4619-.215 40.822-23.563 280.2721-161.767 321.0811-185.316 3.265-1.88 5.912-6.475 5.912-10.236v-280.9619c0-3.77486-2.486-8.26165-5.55-10.03487-3.063-1.773226-8.196-1.679192-11.461.21493l-321.0678 185.31484c-3.2652 1.881-5.9123 6.475-5.9123 10.237v280.962c-.0135 3.774 2.4724 8.275 5.5361 10.035z" fill="#455a64"/><path d="m57.9842 487.819 321.0808-185.316c3.265-1.88 5.912-6.475 5.912-10.236v-280.9753c0-3.77484-2.647-5.29282-5.912-3.41213l-321.0674 185.32843c-3.2652 1.881-5.9123 6.475-5.9123 10.237v280.962c-.0135 3.774 2.6336 5.292 5.8989 3.412z" fill="#37474f"/><path d="m63.1719 447.29v-240.165c0-2.256 1.5856-5.01 3.5474-6.139l303.6127-175.2398c1.961-1.1285 3.547-.215 3.547 2.0419l.013 240.1639c0 2.257-1.585 5.011-3.547 6.139l-303.6257 175.254c-1.9618 1.128-3.5474.215-3.5474-2.055z" fill="#0d62f9"/><path d="m63.1719 447.29v-240.165c0-2.256 1.5856-5.01 3.5474-6.139l303.6127-175.2398c1.961-1.1285 3.547-.215 3.547 2.0419l.013 240.1639c0 2.257-1.585 5.011-3.547 6.139l-303.6257 175.254c-1.9618 1.128-3.5474.215-3.5474-2.055z" fill="#fff" opacity=".7"/><path d="m217.914 383.789c-.645 0-1.25-.147-1.774-.456-1.263-.726-1.962-2.217-1.962-4.178 0-3.815 2.58-8.289 5.885-10.196 1.707-.981 3.333-1.115 4.596-.39 1.263.726 1.962 2.217 1.962 4.178 0 3.815-2.58 8.289-5.886 10.196-.981.564-1.935.846-2.821.846zm4.958-14.333c-.645 0-1.371.228-2.137.671-2.875 1.653-5.213 5.71-5.213 9.028 0 1.464.457 2.525 1.29 3.009s1.988.336 3.251-.39c2.876-1.665 5.214-5.709 5.214-9.027 0-1.464-.457-2.525-1.29-3.009-.322-.188-.699-.282-1.115-.282z" fill="#0d62f9"/><path d="m426.619 70.9365-312.696 180.2775v230.398c0 3.063 3.319 4.998 5.98 3.466l5.576-3.21 295.308-170.23c3.212-1.854 5.832-6.367 5.832-10.088z" fill="#f0f0f0"/><path d="m425.275 73.2605v228.2755c0 3.224-2.365 7.308-5.16 8.933l-295.308 170.23-5.576 3.21c-.417.242-.847.363-1.304.363-.671 0-1.357-.268-1.854-.752-.524-.497-.806-1.169-.806-1.908v-229.632zm1.344-2.324-312.696 180.2775v230.398c0 2.324 1.908 4.004 4.004 4.004.659 0 1.344-.175 1.976-.538l5.576-3.21 295.308-170.23c3.212-1.854 5.832-6.367 5.832-10.088z" fill="#e0e0e0"/><path d="m419.202 66.6511-312.723 180.2639 7.444 4.299 312.696-180.2776z" fill="#455a64" opacity=".8"/><path d="m106.479 247.023v-15.556c0-1.854 1.304-4.111 2.903-5.051l306.918-176.8791c1.599-.9403 4.205-.9403 5.804-.0134l1.599.9269c1.613.9269 2.916 3.1837 2.916 5.0375v15.5695l-312.696 180.2506z" fill="#0d62f9"/><path d="m106.479 247.023v-15.556c0-1.854 1.304-4.111 2.903-5.051l306.918-176.8791c1.599-.9403 4.205-.9403 5.804-.0134l1.599.9269c1.613.9269 2.916 3.1837 2.916 5.0375v15.5695l-312.696 180.2506z" fill="#15289e" opacity=".3"/><path d="m113.923 235.766c0-1.854 1.304-4.111 2.903-5.051l306.891-176.8929c1.599-.9404 2.902-.1881 2.902 1.6657v15.5695l-312.696 180.2507z" fill="#0d62f9"/><path d="m113.923 235.766c0-1.854 1.304-4.111 2.903-5.051l306.891-176.8929c1.599-.9404 2.902-.1881 2.902 1.6657v15.5695l-312.696 180.2507z" fill="#0d62f9" opacity=".4"/><path d="m199.262 209.14v223.695l220.799-127.444v-223.6809z" fill="#fafafa"/><path d="m206.182 239.823 98.078-56.609c.806-.47 1.451-1.585 1.451-2.526v-24.986c0-.927-.645-1.303-1.451-.846l-98.078 56.595c-.806.47-1.451 1.585-1.451 2.512v25.013c-.014.941.645 1.317 1.451.847z" fill="#f0f0f0"/><path d="m233.473 205.151 29.844-17.222c.807-.47 1.452-.134 1.452.739s-.645 1.948-1.452 2.418l-29.844 17.222c-.806.47-1.451.134-1.451-.739s.645-1.948 1.451-2.418z" fill="#455a64"/><path d="m233.473 211.505 51.68-29.823c.806-.47 1.451-.134 1.451.739s-.645 1.948-1.451 2.418l-51.68 29.823c-.806.47-1.451.134-1.451-.739s.645-1.948 1.451-2.418z" fill="#e0e0e0"/><path d="m312.604 178.378 98.078-56.609c.806-.47 1.451-1.585 1.451-2.526v-24.986c0-.9269-.645-1.303-1.451-.8463l-98.078 56.5953c-.806.47-1.451 1.585-1.451 2.526v25.013c0 .927.645 1.303 1.451.833z" fill="#f0f0f0"/><path d="m321.634 158.456c0-.175.027-.349.067-.524.054-.175.107-.323.202-.47.08-.148.174-.269.282-.39.107-.107.215-.201.322-.269.108-.067.215-.094.323-.107.107-.013.201.013.282.067s.148.134.201.242c.054.107.068.255.068.43 0 .094 0 .174-.014.255-.013.081-.027.161-.054.242-.013.08-.04.148-.067.228-.027.067-.054.148-.08.215l-.565 1.532c-.013.026-.027.04-.027.08-.013.027-.026.054-.053.067l-.471.269c-.013.013-.027.013-.04 0s-.013-.04-.013-.067c0-.014 0-.027 0-.04 0-.014 0-.027.013-.027l.376-1.048c-.094.04-.188.054-.282.04-.094-.013-.161-.04-.228-.094-.068-.054-.121-.134-.162-.242-.053-.094-.08-.228-.08-.389zm1.196-.699c0-.053-.014-.107-.027-.148-.014-.04-.04-.067-.067-.08-.027-.014-.068-.027-.108-.027s-.08.013-.121.04c-.04.027-.08.054-.121.094-.04.041-.067.094-.107.148-.027.054-.054.108-.067.175-.014.053-.027.121-.027.188s.013.107.027.148c.013.04.04.067.067.08.027.014.067.027.107.027.041 0 .081-.013.121-.04.041-.027.081-.054.121-.094.04-.041.067-.094.108-.148.027-.054.053-.108.067-.175.027-.067.027-.121.027-.188z" fill="#455a64"/><path d="m324.509 155.648c.148-.08.283-.121.39-.121.108 0 .202.041.269.121.067.067.121.175.161.309.04.135.054.282.054.444v.416.403c0 .175-.027.336-.054.51-.04.175-.094.336-.161.484s-.161.296-.269.43c-.107.134-.242.242-.39.322-.147.081-.282.121-.389.121-.108 0-.202-.04-.269-.121-.067-.067-.121-.174-.161-.309-.041-.134-.054-.282-.054-.443 0-.121 0-.255 0-.403s0-.282 0-.416c0-.175.027-.336.054-.511.04-.174.094-.336.161-.483.067-.162.161-.296.269-.43.107-.121.242-.229.389-.323zm.309 1.854c.014-.269.014-.524 0-.766 0-.08-.013-.134-.026-.201-.014-.054-.027-.108-.054-.134-.027-.027-.054-.054-.094-.054-.041 0-.094.013-.148.04-.067.04-.108.081-.148.121-.04.054-.067.107-.094.175-.027.067-.04.121-.054.201-.013.067-.013.148-.013.229-.014.255-.014.51 0 .765 0 .081.013.148.013.202.014.053.027.107.054.134s.054.054.094.054.094-.014.148-.041c.054-.04.107-.08.148-.12.04-.054.067-.108.094-.175s.04-.134.054-.202c.026-.067.026-.147.026-.228z" fill="#455a64"/><path d="m326.566 155.138v.349c0 .094-.014.188-.041.269-.013.094-.053.174-.08.255-.041.081-.094.161-.148.228s-.121.121-.202.162c-.08.04-.147.067-.201.067s-.108-.027-.148-.054c-.04-.04-.067-.094-.081-.161-.027-.067-.027-.148-.04-.229 0-.053 0-.121 0-.174 0-.054 0-.108 0-.175 0-.094.013-.188.04-.282.014-.094.054-.175.081-.255.04-.081.081-.161.148-.229.054-.067.121-.121.201-.161.081-.04.148-.067.202-.067s.107.013.148.054c.04.04.067.094.094.161.013.067.027.148.027.242zm.752-.967c.014-.041.027-.068.04-.094.014-.027.041-.041.068-.054l.241-.148c.027-.013.041-.013.054 0 .014.013.014.027.014.054v.027c0 .013 0 .026-.014.026l-1.478 3.829c-.013.04-.027.067-.04.094-.014.027-.041.04-.067.054l-.242.148c-.027.013-.041.013-.054 0-.013-.014-.013-.027-.013-.054 0 0 0-.014 0-.027s0-.027.013-.027zm-1.344 1.638c0 .081.014.135.027.162.014.026.054.027.094.013.041-.027.067-.067.094-.107.014-.054.027-.121.027-.202 0-.107 0-.201 0-.309 0-.08-.013-.134-.027-.161-.013-.027-.04-.027-.094 0-.04.027-.067.067-.094.107-.013.054-.027.121-.027.202zm1.976.135v.349c0 .094-.014.188-.041.269-.013.094-.053.174-.08.255-.041.081-.081.161-.148.228-.054.067-.121.121-.202.162-.08.04-.147.067-.201.067s-.108-.014-.148-.054-.067-.094-.081-.161c-.013-.067-.027-.148-.04-.229 0-.053 0-.121 0-.174 0-.054 0-.121 0-.175 0-.094.013-.188.04-.269.014-.094.054-.174.081-.255.04-.08.081-.161.148-.215.054-.067.121-.121.201-.174.081-.041.148-.068.202-.068s.107.014.148.054c.04.04.067.094.08.161.027.068.041.135.041.229zm-.592.671c0 .081.014.135.027.162.014.027.041.027.094 0 .041-.027.068-.068.094-.108.014-.054.027-.121.027-.201 0-.108 0-.202 0-.309 0-.081-.013-.135-.027-.161-.013-.027-.053-.027-.094-.014-.04.027-.08.067-.094.108-.013.053-.027.12-.027.201z" fill="#455a64"/><path d="m324.804 149.523v-2.58c-1.411.806-2.7 2.257-3.762 4.057l.981 1.518c.779-1.316 1.747-2.391 2.781-2.995z" fill="#455a64"/><path d="m330.892 150.248c-.417-1.76-1.25-2.996-2.325-3.587-1.062-.577-2.352-.524-3.763.282v2.58c1.035-.605 2.003-.632 2.782-.202.793.43 1.411 1.343 1.72 2.646.148.618.228 1.33.228 2.11 0 .779-.08 1.585-.228 2.377-.309 1.653-.914 3.265-1.72 4.621-.779 1.317-1.747 2.405-2.782 3.01-1.034.604-2.002.631-2.781.201-.793-.43-1.411-1.343-1.72-2.646-.148-.618-.228-1.33-.228-2.109 0-.78.08-1.586.228-2.378.309-1.652.927-3.278 1.72-4.635l-.981-1.518c-1.075 1.841-1.908 4.03-2.325 6.274-.201 1.074-.309 2.163-.309 3.224s.108 2.028.309 2.861c.417 1.76 1.25 2.996 2.325 3.587 1.062.577 2.352.524 3.762-.282 1.411-.806 2.701-2.257 3.763-4.057 1.075-1.841 1.908-4.03 2.325-6.274.201-1.074.309-2.162.309-3.224 0-1.061-.108-2.028-.309-2.861z" fill="#0d62f9"/><path d="m340.754 143.195 29.844-17.221c.806-.471 1.451-.135 1.451.738 0 .874-.645 1.948-1.451 2.418l-29.844 17.222c-.806.47-1.451.135-1.451-.739 0-.873.645-1.948 1.451-2.418z" fill="#455a64"/><path d="m340.754 149.549 51.679-29.822c.806-.47 1.451-.134 1.451.739s-.645 1.948-1.451 2.418l-51.679 29.822c-.806.471-1.451.135-1.451-.739 0-.873.645-1.947 1.451-2.418z" fill="#e0e0e0"/><path d="m216.167 246.674 20.935-12.117c.806-.471 1.451-.135 1.451.738 0 .874-.645 1.948-1.451 2.419l-20.935 12.117c-.807.47-1.452.134-1.452-.739s.659-1.948 1.452-2.418z" fill="#455a64"/><path d="m410.791 142.174v159.819c0 .443-.39 1.128-.78 1.357l-203.935 117.704v-159.818c0-.444.389-1.129.779-1.357l2.553-1.478c1.209-.698 2.123-2.284 2.123-3.681v-9.242c0-.443.39-1.128.779-1.357l29.28-16.899v8.597c0 1.559 1.075 2.378 2.15 2.378.443 0 .887-.121 1.317-.376zm.537-1.692c-.201 0-.416.067-.645.201l-166.298 95.983c-.228.134-.457.201-.645.201-.484 0-.806-.376-.806-1.034v-9.243c0-.658-.323-1.034-.806-1.034-.202 0-.417.067-.645.202l-29.844 17.221c-.807.471-1.452 1.586-1.452 2.526v9.242c0 .927-.645 2.055-1.451 2.526l-2.553 1.477c-.806.471-1.451 1.585-1.451 2.526v160.463c0 .658.322 1.034.806 1.034.202 0 .417-.067.645-.201l204.5-118.04c.806-.47 1.451-1.585 1.451-2.526v-160.463c0-.685-.322-1.061-.806-1.061z" fill="#e0e0e0"/><path d="m217.873 268.207c-.255 0-.497-.067-.712-.188-.484-.282-.766-.832-.766-1.518v-6.098c0-1.156.793-2.526 1.787-3.104l16.219-9.349c.591-.35 1.222-.376 1.706-.108.484.282.766.833.766 1.518v6.099c0 1.155-.793 2.526-1.787 3.103l-16.219 9.35c-.336.201-.672.295-.994.295zm.994-9.739c-.591.349-1.115 1.25-1.115 1.935v6.098c0 .229.067.35.094.363.027.014.161.014.363-.107l16.218-9.35c.592-.349 1.116-1.249 1.116-1.934v-6.099c0-.229-.067-.35-.094-.363s-.162-.013-.363.107z" fill="#e0e0e0"/><path d="m219.821 260.98 10.575-6.125c.537-.309.967-.094.967.483 0 .578-.43 1.303-.967 1.612l-10.575 6.126c-.538.309-.968.094-.968-.497 0-.564.443-1.29.968-1.599z" fill="#e0e0e0"/><path d="m232.855 253.847.873 1.249c.027.054.094.014.134-.08l.874-2.257c.04-.108 0-.215-.067-.175l-1.747 1.008c-.067.04-.108.188-.067.255z" fill="#455a64"/><path d="m226.553 314.647c.779-.443 1.397-.08 1.397.806 0 .9-.631 1.988-1.397 2.432-.779.443-1.397.08-1.397-.806 0-.887.631-1.988 1.397-2.432z" fill="#0d62f9"/><path d="m237.478 308.347c.779-.443 1.397-.081 1.397.806 0 .9-.631 1.988-1.397 2.431-.78.444-1.398.081-1.398-.806 0-.886.618-1.988 1.398-2.431z" fill="#0d62f9"/><path d="m248.388 304.814c.78-.443 1.398-.081 1.398.806s-.632 1.988-1.398 2.431c-.779.444-1.397.081-1.397-.806 0-.9.632-1.988 1.397-2.431z" fill="#0d62f9"/><path d="m259.326 293.463c.78-.444 1.398-.081 1.398.806 0 .9-.632 1.988-1.398 2.431-.779.443-1.397.081-1.397-.806-.014-.9.618-1.988 1.397-2.431z" fill="#0d62f9"/><path d="m270.224 289.446c.779-.443 1.398-.081 1.398.806 0 .9-.632 1.988-1.398 2.431-.779.444-1.397.081-1.397-.806 0-.9.618-1.988 1.397-2.431z" fill="#0d62f9"/><path d="m281.135 276.832c.779-.443 1.397-.081 1.397.806 0 .9-.631 1.988-1.397 2.431-.78.444-1.398.081-1.398-.806 0-.886.632-1.974 1.398-2.431z" fill="#0d62f9"/><path d="m292.06 273.688c.779-.443 1.397-.08 1.397.806 0 .901-.632 1.989-1.397 2.432-.78.443-1.398.081-1.398-.806s.618-1.988 1.398-2.432z" fill="#0d62f9"/><path d="m302.97 239.03c.78-.443 1.398-.08 1.398.806 0 .9-.632 1.988-1.398 2.432-.779.443-1.397.08-1.397-.806 0-.887.631-1.989 1.397-2.432z" fill="#0d62f9"/><path d="m313.895 257.931c.779-.443 1.397-.081 1.397.806 0 .9-.631 1.988-1.397 2.431-.779.444-1.397.081-1.397-.806 0-.886.618-1.974 1.397-2.431z" fill="#0d62f9"/><path d="m324.806 257.931c.779-.443 1.397-.081 1.397.806 0 .9-.631 1.988-1.397 2.431-.78.444-1.398.081-1.398-.806 0-.886.618-1.974 1.398-2.431z" fill="#0d62f9"/><path d="m335.716 257.931c.78-.443 1.398-.081 1.398.806s-.632 1.988-1.398 2.431c-.766.444-1.397.081-1.397-.806 0-.886.631-1.974 1.397-2.431z" fill="#0d62f9"/><path d="m346.641 239.03c.78-.443 1.398-.08 1.398.806 0 .9-.632 1.988-1.398 2.432-.779.443-1.397.08-1.397-.806-.014-.9.618-1.989 1.397-2.432z" fill="#0d62f9"/><path d="m357.552 235.416c.779-.443 1.397-.08 1.397.806 0 .9-.631 1.988-1.397 2.432-.779.443-1.397.08-1.397-.806 0-.887.631-1.988 1.397-2.432z" fill="#0d62f9"/><path d="m368.504 220.129c.779-.443 1.397-.081 1.397.806 0 .9-.631 1.988-1.397 2.431-.78.444-1.398.081-1.398-.806 0-.886.632-1.988 1.398-2.431z" fill="#0d62f9"/><path d="m380.411 222.314c.549-.951.552-1.977.005-2.293-.546-.315-1.434.2-1.983 1.151s-.552 1.978-.005 2.293c.546.315 1.434-.2 1.983-1.151z" fill="#0d62f9"/><path d="m391.325 222.318c.549-.951.552-1.977.005-2.293-.546-.315-1.434.2-1.983 1.151s-.552 1.978-.005 2.293c.546.316 1.434-.2 1.983-1.151z" fill="#0d62f9"/><path d="m401.223 213.829c.779-.443 1.397-.081 1.397.806 0 .9-.631 1.988-1.397 2.431-.779.444-1.398.081-1.398-.806 0-.886.619-1.988 1.398-2.431z" fill="#0d62f9"/><path d="m215.616 329.223c-.081 0-.162-.027-.215-.081-.135-.121-.162-.336-.027-.47l11.018-12.668c.027-.027.054-.054.081-.067l10.844-6.26 10.897-3.533 10.857-11.284c.041-.041.081-.067.121-.081l10.831-3.99 10.857-12.533c.04-.054.094-.081.161-.108l10.736-3.103 10.858-34.484c.04-.12.147-.214.282-.228.121-.013.255.054.322.161l10.817 18.74 10.75-.013 10.696.013 10.817-18.74c.04-.067.107-.121.188-.147l10.817-3.587 10.857-15.194c.067-.094.161-.134.269-.134h21.741l10.844-6.26c.161-.094.363-.04.457.121s.04.363-.121.457l-10.925 6.3c-.053.027-.107.04-.174.04h-21.661l-10.817 15.14c-.04.054-.094.107-.161.121l-10.79 3.587-10.857 18.793c-.068.108-.175.175-.296.175l-10.884-.014-10.938.014c-.121 0-.228-.067-.296-.175l-10.534-18.243-10.683 33.92c-.04.107-.121.188-.228.228l-10.817 3.117-10.857 12.533c-.041.041-.081.081-.135.094l-10.844 3.99-10.857 11.298c-.04.04-.08.067-.134.08l-10.911 3.533-10.723 6.193-10.992 12.628c-.053.08-.147.121-.241.121z" fill="#0d62f9"/><path d="m215.643 335.832c-.229 0-.457-.121-.578-.336-.188-.322-.081-.725.242-.914l185.58-107.118c.323-.188.726-.081.914.241.188.323.081.726-.242.914l-185.581 107.119c-.107.067-.228.094-.335.094z" fill="#e0e0e0"/><path d="m226.553 302.047c.779-.444 1.397-.081 1.397.806 0 .9-.631 1.988-1.397 2.431-.779.443-1.397.081-1.397-.806s.631-1.988 1.397-2.431z" fill="#0d62f9"/><path d="m238.498 301.874c.549-.951.551-1.978.005-2.293-.547-.315-1.435.2-1.984 1.151s-.551 1.978-.005 2.293 1.435-.2 1.984-1.151z" fill="#0d62f9"/><path d="m248.388 276.832c.78-.444 1.398-.081 1.398.806 0 .9-.632 1.988-1.398 2.431-.779.444-1.397.081-1.397-.806 0-.886.618-1.974 1.397-2.431z" fill="#0d62f9"/><path d="m259.326 283.132c.78-.443 1.398-.08 1.398.806 0 .9-.632 1.988-1.398 2.432-.779.443-1.397.08-1.397-.806-.014-.887.618-1.975 1.397-2.432z" fill="#0d62f9"/><path d="m270.224 279.989c.779-.444 1.398-.081 1.398.806 0 .9-.632 1.988-1.398 2.431-.779.444-1.397.081-1.397-.806 0-.9.618-1.988 1.397-2.431z" fill="#0d62f9"/><path d="m281.135 270.532c.779-.444 1.397-.081 1.397.806 0 .9-.631 1.988-1.397 2.431-.78.443-1.398.081-1.398-.806s.632-1.975 1.398-2.431z" fill="#0d62f9"/><path d="m292.06 257.931c.779-.443 1.397-.081 1.397.806 0 .9-.632 1.988-1.397 2.431-.78.444-1.398.081-1.398-.806 0-.886.618-1.974 1.398-2.431z" fill="#0d62f9"/><path d="m302.97 254.787c.78-.443 1.398-.08 1.398.806 0 .901-.632 1.989-1.398 2.432-.779.443-1.397.081-1.397-.806s.631-1.988 1.397-2.432z" fill="#0d62f9"/><path d="m313.895 245.33c.78-.443 1.398-.08 1.398.806 0 .9-.632 1.988-1.398 2.432-.779.443-1.397.08-1.397-.806-.014-.9.618-1.988 1.397-2.432z" fill="#0d62f9"/><path d="m324.806 245.33c.779-.443 1.397-.08 1.397.806 0 .9-.631 1.988-1.397 2.432-.78.443-1.398.08-1.398-.806 0-.887.618-1.975 1.398-2.432z" fill="#0d62f9"/><path d="m335.716 220.129c.78-.443 1.398-.081 1.398.806s-.632 1.988-1.398 2.431c-.766.444-1.397.081-1.397-.806 0-.9.631-1.988 1.397-2.431z" fill="#0d62f9"/><path d="m346.641 232.636c.779-.444 1.398-.081 1.398.806 0 .9-.632 1.988-1.398 2.431-.779.443-1.397.081-1.397-.806s.618-1.975 1.397-2.431z" fill="#0d62f9"/><path d="m357.552 220.129c.779-.443 1.397-.081 1.397.806 0 .9-.631 1.988-1.397 2.431-.779.444-1.397.081-1.397-.806 0-.886.631-1.988 1.397-2.431z" fill="#0d62f9"/><path d="m368.477 213.829c.779-.443 1.397-.081 1.397.806 0 .9-.632 1.988-1.397 2.431-.78.444-1.398.081-1.398-.806 0-.886.618-1.988 1.398-2.431z" fill="#0d62f9"/><path d="m379.387 213.829c.78-.443 1.398-.081 1.398.806 0 .9-.632 1.988-1.398 2.431-.779.444-1.397.081-1.397-.806 0-.9.618-1.988 1.397-2.431z" fill="#0d62f9"/><path d="m390.298 207.528c.779-.443 1.398-.08 1.398.806 0 .9-.632 1.989-1.398 2.432-.779.443-1.397.08-1.397-.806 0-.9.631-1.988 1.397-2.432z" fill="#0d62f9"/><path d="m401.223 207.528c.779-.443 1.398-.08 1.398.806 0 .9-.632 1.989-1.398 2.432-.779.443-1.397.08-1.397-.806-.014-.9.618-1.988 1.397-2.432z" fill="#0d62f9"/><path d="m215.642 322.895c-.054 0-.121-.013-.174-.04-.162-.094-.215-.296-.121-.457l10.991-18.954c.054-.081.121-.135.215-.162l10.683-2.283 10.843-22.703c.041-.081.121-.148.202-.175.094-.026.188-.013.269.027l10.803 6.233 10.696-3.103 10.844-9.39 10.898-12.573c.04-.054.094-.081.161-.108l10.844-3.13 10.857-9.403c.067-.054.134-.081.215-.081h10.696l10.83-25c.04-.107.148-.174.255-.201.108-.014.229.027.309.107l10.656 12.305 10.656-12.305c.027-.027.053-.054.08-.067l10.952-6.327c.053-.027.107-.04.174-.04h10.831l10.803-6.234c.054-.026.108-.04.175-.04h10.924c.188 0 .336.148.336.336s-.148.336-.336.336h-10.83l-10.804 6.233c-.053.027-.107.04-.174.04h-10.831l-10.83 6.247-10.884 12.56c-.134.148-.376.148-.511 0l-10.561-12.198-10.71 24.718c-.053.121-.174.202-.309.202h-10.79l-10.817 9.363c-.04.027-.08.054-.121.067l-10.816 3.117-10.871 12.533-10.938 9.471c-.04.026-.081.053-.121.067l-10.911 3.157c-.094.027-.188.013-.255-.027l-10.616-6.126-10.763 22.515c-.04.094-.134.161-.228.188l-10.696 2.283-10.924 18.821c-.027.148-.135.201-.256.201z" fill="#0d62f9"/><path d="m226.553 302.047c.779-.444 1.397-.081 1.397.806 0 .9-.631 1.988-1.397 2.431-.779.443-1.397.081-1.397-.806s.631-1.988 1.397-2.431z" fill="#000" opacity=".09"/><path d="m238.498 301.874c.549-.951.551-1.978.005-2.293-.547-.315-1.435.2-1.984 1.151s-.551 1.978-.005 2.293 1.435-.2 1.984-1.151z" fill="#000" opacity=".09"/><path d="m248.388 276.832c.78-.444 1.398-.081 1.398.806 0 .9-.632 1.988-1.398 2.431-.779.444-1.397.081-1.397-.806 0-.886.618-1.974 1.397-2.431z" fill="#000" opacity=".09"/><path d="m259.326 283.132c.78-.443 1.398-.08 1.398.806 0 .9-.632 1.988-1.398 2.432-.779.443-1.397.08-1.397-.806-.014-.887.618-1.975 1.397-2.432z" fill="#000" opacity=".09"/><path d="m270.224 279.989c.779-.444 1.398-.081 1.398.806 0 .9-.632 1.988-1.398 2.431-.779.444-1.397.081-1.397-.806 0-.9.618-1.988 1.397-2.431z" fill="#000" opacity=".09"/><path d="m281.135 270.532c.779-.444 1.397-.081 1.397.806 0 .9-.631 1.988-1.397 2.431-.78.443-1.398.081-1.398-.806s.632-1.975 1.398-2.431z" fill="#000" opacity=".09"/><path d="m292.06 257.931c.779-.443 1.397-.081 1.397.806 0 .9-.632 1.988-1.397 2.431-.78.444-1.398.081-1.398-.806 0-.886.618-1.974 1.398-2.431z" fill="#000" opacity=".09"/><path d="m302.97 254.787c.78-.443 1.398-.08 1.398.806 0 .901-.632 1.989-1.398 2.432-.779.443-1.397.081-1.397-.806s.631-1.988 1.397-2.432z" fill="#000" opacity=".09"/><path d="m313.895 245.33c.78-.443 1.398-.08 1.398.806 0 .9-.632 1.988-1.398 2.432-.779.443-1.397.08-1.397-.806-.014-.9.618-1.988 1.397-2.432z" fill="#000" opacity=".09"/><path d="m324.806 245.33c.779-.443 1.397-.08 1.397.806 0 .9-.631 1.988-1.397 2.432-.78.443-1.398.08-1.398-.806 0-.887.618-1.975 1.398-2.432z" fill="#000" opacity=".09"/><path d="m335.716 220.129c.78-.443 1.398-.081 1.398.806s-.632 1.988-1.398 2.431c-.766.444-1.397.081-1.397-.806 0-.9.631-1.988 1.397-2.431z" fill="#000" opacity=".09"/><path d="m346.641 232.636c.779-.444 1.398-.081 1.398.806 0 .9-.632 1.988-1.398 2.431-.779.443-1.397.081-1.397-.806s.618-1.975 1.397-2.431z" fill="#000" opacity=".09"/><path d="m357.552 220.129c.779-.443 1.397-.081 1.397.806 0 .9-.631 1.988-1.397 2.431-.779.444-1.397.081-1.397-.806 0-.886.631-1.988 1.397-2.431z" fill="#000" opacity=".09"/><path d="m368.477 213.829c.779-.443 1.397-.081 1.397.806 0 .9-.632 1.988-1.397 2.431-.78.444-1.398.081-1.398-.806 0-.886.618-1.988 1.398-2.431z" fill="#000" opacity=".09"/><path d="m379.387 213.829c.78-.443 1.398-.081 1.398.806 0 .9-.632 1.988-1.398 2.431-.779.444-1.397.081-1.397-.806 0-.9.618-1.988 1.397-2.431z" fill="#000" opacity=".09"/><path d="m390.298 207.528c.779-.443 1.398-.08 1.398.806 0 .9-.632 1.989-1.398 2.432-.779.443-1.397.08-1.397-.806 0-.9.631-1.988 1.397-2.432z" fill="#000" opacity=".09"/><path d="m401.223 207.528c.779-.443 1.398-.08 1.398.806 0 .9-.632 1.989-1.398 2.432-.779.443-1.397.08-1.397-.806-.014-.9.618-1.988 1.397-2.432z" fill="#000" opacity=".09"/><path d="m215.642 322.895c-.054 0-.121-.013-.174-.04-.162-.094-.215-.296-.121-.457l10.991-18.954c.054-.081.121-.135.215-.162l10.683-2.283 10.843-22.703c.041-.081.121-.148.202-.175.094-.026.188-.013.269.027l10.803 6.233 10.696-3.103 10.844-9.39 10.898-12.573c.04-.054.094-.081.161-.108l10.844-3.13 10.857-9.403c.067-.054.134-.081.215-.081h10.696l10.83-25c.04-.107.148-.174.255-.201.108-.014.229.027.309.107l10.656 12.305 10.656-12.305c.027-.027.053-.054.08-.067l10.952-6.327c.053-.027.107-.04.174-.04h10.831l10.803-6.234c.054-.026.108-.04.175-.04h10.924c.188 0 .336.148.336.336s-.148.336-.336.336h-10.83l-10.804 6.233c-.053.027-.107.04-.174.04h-10.831l-10.83 6.247-10.884 12.56c-.134.148-.376.148-.511 0l-10.561-12.198-10.71 24.718c-.053.121-.174.202-.309.202h-10.79l-10.817 9.363c-.04.027-.08.054-.121.067l-10.816 3.117-10.871 12.533-10.938 9.471c-.04.026-.081.053-.121.067l-10.911 3.157c-.094.027-.188.013-.255-.027l-10.616-6.126-10.763 22.515c-.04.094-.134.161-.228.188l-10.696 2.283-10.924 18.821c-.027.148-.135.201-.256.201z" fill="#000" opacity=".09"/><path d="m221.367 274.185 10.575-6.125c.537-.309.967-.094.967.497s-.43 1.303-.967 1.612l-10.575 6.126c-.538.308-.968.094-.968-.498-.013-.577.43-1.303.968-1.612z" fill="#e0e0e0"/><path d="m221.367 280.472 10.575-6.125c.537-.309.967-.094.967.497 0 .577-.43 1.303-.967 1.612l-10.575 6.126c-.538.308-.968.094-.968-.484-.013-.591.43-1.317.968-1.626z" fill="#e0e0e0"/><path d="m215.643 367.092c-.08 0-.174-.027-.228-.094-.135-.135-.135-.336-.014-.471l5.536-5.695 5.442-.685 5.496-7.093 5.496.752 5.335-4.823 5.455-3.264 5.563-7.697 5.523 1.732 5.307-4.742c.135-.12.35-.107.471.027.121.135.107.35-.027.47l-5.59 4.998-5.415-1.693-5.415 7.456-5.456 3.264-5.523 4.997-5.415-.739-5.428 7.013-5.483.698-5.374 5.522c-.081.04-.162.067-.256.067z" fill="#0d62f9"/><path d="m221.515 350.192c.027.121.067.229.108.323.053.107.121.174.215.228s.228.054.376.04c.161-.027.363-.107.618-.255.161-.094.323-.215.47-.363.148-.147.283-.322.39-.51.108-.202.202-.403.269-.645.067-.228.094-.484.094-.752 0-.269-.027-.47-.094-.618s-.148-.242-.256-.296c-.107-.053-.241-.053-.389-.013s-.309.107-.484.201l-.658.39c-.054.04-.108.027-.148-.013-.041-.041-.067-.108-.067-.202v-.443c0-.081.013-.148.04-.229.027-.08.054-.147.081-.215l1.437-3.21-2.297 1.33c-.054.04-.108.027-.148-.014-.041-.04-.067-.107-.067-.201v-.443c0-.095.026-.175.067-.269.04-.094.094-.148.148-.188l3.144-1.814c.054-.04.107-.027.148.014.04.04.067.107.067.201v.443c0 .081-.014.148-.04.242-.027.081-.068.175-.108.269l-1.411 3.17c.269-.147.511-.228.726-.228.228-.014.403.054.564.175.161.12.282.322.363.577.094.255.134.578.134.967 0 .417-.053.82-.161 1.223-.107.389-.255.752-.43 1.088-.175.322-.39.618-.631.887-.242.268-.498.47-.766.631-.363.201-.659.322-.928.336-.255.027-.47-.027-.645-.135-.174-.107-.295-.268-.376-.483-.08-.215-.121-.443-.134-.712 0-.081.013-.148.054-.229.04-.067.08-.12.121-.147l.362-.215c.054-.04.108-.04.135 0 .08 0 .094.04.107.107z" fill="#455a64"/><path d="m226.272 347.452c.026.121.067.228.107.336.054.107.121.174.215.228s.228.054.376.027c.162-.027.363-.107.618-.255.162-.094.323-.215.471-.363.147-.148.282-.322.389-.51.108-.202.202-.417.269-.645.067-.229.094-.484.094-.752 0-.269-.027-.471-.094-.618-.067-.148-.148-.242-.255-.296-.108-.054-.242-.054-.39-.013-.148.04-.309.107-.484.201l-.658.39c-.054.027-.108.027-.148-.014-.04-.04-.067-.107-.067-.201v-.444c0-.067.013-.147.04-.228s.054-.148.081-.215l1.438-3.21-2.298 1.329c-.054.041-.108.027-.148-.013s-.067-.107-.067-.202v-.443c0-.094.027-.174.067-.269.04-.094.094-.147.148-.188l3.144-1.813c.054-.04.108-.027.148.013.04.041.067.108.067.202v.443c0 .081-.013.148-.04.242-.027.081-.067.175-.108.269l-1.411 3.17c.269-.148.511-.228.726-.228.229-.014.417.053.564.174.162.121.283.323.363.578.094.255.135.578.135.967 0 .417-.054.819-.162 1.222-.107.39-.255.753-.43 1.089-.174.335-.389.618-.631.886-.242.269-.497.47-.766.632-.363.201-.672.322-.927.335-.256.027-.471-.026-.645-.134-.161-.107-.296-.269-.376-.484-.081-.214-.121-.456-.135-.711 0-.081.014-.148.054-.229.04-.067.081-.121.121-.148l.363-.215c.053-.04.107-.026.134 0 .067 0 .094.041.108.108z" fill="#455a64"/><path d="m216.624 371.431 47.164-27.324c.538-.309.968-.094.968.484 0 .577-.43 1.303-.968 1.612l-47.164 27.323c-.538.309-.968.094-.968-.483 0-.578.444-1.303.968-1.612z" fill="#e0e0e0"/><path d="m216.624 339.916 10.575-6.126c.537-.309.967-.094.967.484 0 .577-.43 1.303-.967 1.612l-10.575 6.125c-.538.309-.968.094-.968-.483 0-.591.444-1.303.968-1.612z" fill="#e0e0e0"/><path d="m215.643 404.867c-.08 0-.174-.027-.228-.094-.135-.135-.135-.336-.014-.471l5.536-5.695 5.469-.699 5.51-4.823 5.307-1.45 5.536-11.029 5.55 2.713 5.361-4.715.094-.013 5.322-1.008 5.374-9.282c.094-.162.296-.215.457-.121s.215.295.121.456l-5.522 9.552-5.537 1.047-5.563 4.89-5.361-2.619-5.375 10.706-5.523 1.505-5.482 4.836-5.442.685-5.375 5.521c-.04.081-.121.108-.215.108z" fill="#0d62f9"/><path d="m215.643 404.867c-.08 0-.174-.027-.228-.094-.135-.135-.135-.336-.014-.471l5.536-5.695 5.469-.699 5.51-4.823 5.307-1.45 5.536-11.029 5.55 2.713 5.361-4.715.094-.013 5.322-1.008 5.374-9.282c.094-.162.296-.215.457-.121s.215.295.121.456l-5.522 9.552-5.537 1.047-5.563 4.89-5.361-2.619-5.375 10.706-5.523 1.505-5.482 4.836-5.442.685-5.375 5.521c-.04.081-.121.108-.215.108z" fill="#000" opacity=".09"/><path d="m228.234 380.821c0 .362.014.712.014 1.034s0 .672-.014 1.048c0 .483-.054.954-.134 1.41-.081.457-.202.887-.377 1.29-.161.403-.376.752-.631 1.075-.255.322-.551.577-.9.779-.35.201-.659.295-.901.269-.255-.027-.457-.148-.631-.35-.161-.201-.296-.497-.376-.86-.081-.362-.121-.779-.135-1.262 0-.363-.013-.712-.013-1.035 0-.322 0-.671.013-1.047 0-.484.054-.954.135-1.411.08-.457.201-.887.376-1.29.161-.403.376-.765.631-1.074.256-.323.551-.591.901-.793.349-.201.658-.282.9-.255.255.027.457.148.631.363.162.201.283.497.377.859.094.363.134.78.134 1.25zm-3.319 4.003c.014.766.121 1.276.336 1.518s.538.242.941 0c.416-.242.725-.605.94-1.102s.336-1.128.336-1.921c0-.376.014-.725.014-1.047 0-.323 0-.672-.014-1.035-.013-.779-.121-1.289-.336-1.531s-.524-.256-.94-.014c-.417.242-.726.605-.941 1.102s-.336 1.142-.336 1.921c0 .376-.013.725-.013 1.048.013.349.013.685.013 1.061z" fill="#455a64"/><path d="m216.624 409.206 47.164-27.324c.538-.309.968-.094.968.497 0 .578-.43 1.303-.968 1.612l-47.164 27.324c-.538.309-.968.094-.968-.497 0-.578.444-1.303.968-1.612z" fill="#e0e0e0"/><path d="m216.624 377.691 10.575-6.126c.537-.309.967-.094.967.484 0 .577-.43 1.303-.967 1.612l-10.575 6.125c-.538.309-.968.094-.968-.483 0-.591.444-1.303.968-1.612z" fill="#e0e0e0"/><path d="m281.135 329.209c-.094 0-.201-.04-.268-.121-.121-.148-.094-.363.053-.47l5.456-4.352 5.496-6.274 5.576-.806 5.321-1.195 5.509-6.502 5.429.953 5.442-8.61 5.523.094 5.348-4.783c.134-.121.349-.107.47.027.121.135.108.349-.027.47l-5.549 4.957-5.416-.094-5.482 8.678-5.496-.967-5.401 6.381-5.563 1.249-5.362.779-5.375 6.14-5.495 4.392c-.041.041-.108.054-.189.054z" fill="#0d62f9"/><path d="m283.299 310.792c.04-.04.081-.081.134-.121.054-.04.108-.081.148-.108.296-.174.578-.255.82-.255.255 0 .47.094.658.242.188.161.323.39.43.685.108.296.162.658.162 1.075 0 .416-.054.833-.162 1.263-.107.416-.242.819-.43 1.195s-.403.712-.658 1.008c-.255.295-.524.537-.82.698-.295.175-.578.255-.833.255s-.47-.094-.658-.255-.323-.389-.43-.685c-.108-.295-.161-.658-.161-1.075 0-.241.013-.47.053-.698.041-.229.081-.443.135-.658.053-.215.121-.417.188-.632.067-.201.134-.403.201-.591l1.452-4.137c.026-.054.053-.121.094-.202.026-.08.08-.134.161-.188l.457-.269c.053-.026.08-.026.121.014.027.04.04.094.04.161 0 .04 0 .081-.013.108-.014.026-.014.053-.027.08zm-1.021 3.493c0 .241.027.456.094.644s.148.336.255.444c.108.107.242.161.417.174.161.014.349-.04.551-.161.201-.121.389-.269.551-.47.161-.202.295-.417.416-.645.108-.242.202-.484.256-.739.053-.255.094-.51.094-.752s-.027-.457-.094-.645c-.068-.188-.148-.336-.256-.443-.107-.108-.255-.161-.416-.175-.162-.013-.35.041-.551.161-.202.121-.39.269-.551.471-.161.201-.296.416-.417.644-.107.242-.201.484-.255.739-.067.255-.094.497-.094.753z" fill="#455a64"/><path d="m288.835 308.804c.161-.309.282-.605.363-.887.08-.282.12-.605.12-.967 0-.43-.08-.753-.241-.954-.162-.188-.43-.188-.78.013-.188.108-.349.242-.47.39-.134.161-.242.336-.323.524-.094.188-.161.403-.215.618-.053.215-.094.43-.12.645-.014.094-.041.188-.081.255s-.081.121-.121.148l-.363.215c-.054.026-.094.026-.121-.014-.04-.04-.054-.094-.054-.161 0-.309.054-.645.135-1.008.08-.362.215-.712.363-1.061.161-.349.349-.672.591-.967.228-.296.497-.537.793-.699.295-.174.551-.241.779-.241.228.013.403.094.564.241.148.148.269.363.336.645.081.282.121.591.121.954 0 .269-.013.51-.04.739-.027.228-.067.457-.134.685-.054.228-.135.457-.242.698-.094.229-.215.484-.35.753l-1.787 3.587 2.446-1.411c.054-.04.107-.027.148.013.04.041.067.108.067.202v.443c0 .094-.027.175-.067.269-.041.094-.094.148-.148.188l-3.44 1.988c-.054.04-.108.027-.148-.013-.04-.041-.067-.108-.067-.202v-.443c0-.094.013-.175.04-.255.027-.081.067-.188.135-.309z" fill="#455a64"/><path d="m294.264 301.59c.054-.04.108-.027.148.013.04.041.067.108.067.202v.443c0 .067-.013.161-.027.242-.013.094-.04.188-.067.295l-1.774 8.074c-.026.081-.053.175-.08.255-.041.081-.081.135-.148.175l-.363.215c-.054.027-.094.027-.134-.014-.041-.04-.054-.094-.054-.174 0-.014 0-.041 0-.054 0-.027.013-.054.027-.107l1.787-8.087-2.62 1.518c-.054.04-.108.026-.148-.014s-.067-.107-.067-.201v-.444c0-.094.027-.174.067-.268s.094-.148.148-.188z" fill="#455a64"/><path d="m282.129 333.548 47.164-27.324c.538-.309.968-.094.968.497 0 .578-.43 1.304-.968 1.613l-47.164 27.323c-.537.309-.967.094-.967-.497 0-.577.43-1.303.967-1.612z" fill="#e0e0e0"/><path d="m282.129 302.033 10.575-6.126c.538-.309.968-.094.968.497 0 .578-.43 1.304-.968 1.612l-10.575 6.126c-.537.309-.967.094-.967-.483 0-.605.43-1.317.967-1.626z" fill="#e0e0e0"/><path d="m281.136 366.984c-.054 0-.121-.013-.175-.054-.161-.094-.215-.309-.107-.456l5.576-9.149 5.603 1.035 5.281-1.438 5.456-6.663 5.428-1.37 5.523-9.833 5.644 1.639 5.294-1.008 5.375-4.782c.134-.121.349-.108.47.027.121.134.108.349-.027.47l-5.509 4.903-.094.014-5.55 1.047-5.28-1.531-5.402 9.618-5.496 1.384-5.455 6.65-.108.026-5.536 1.518-.081-.013-5.227-.967-5.334 8.745c-.041.134-.148.188-.269.188z" fill="#0d62f9"/><path d="m281.136 366.984c-.054 0-.121-.013-.175-.054-.161-.094-.215-.309-.107-.456l5.576-9.149 5.603 1.035 5.281-1.438 5.456-6.663 5.428-1.37 5.523-9.833 5.644 1.639 5.294-1.008 5.375-4.782c.134-.121.349-.108.47.027.121.134.108.349-.027.47l-5.509 4.903-.094.014-5.55 1.047-5.28-1.531-5.402 9.618-5.496 1.384-5.455 6.65-.108.026-5.536 1.518-.081-.013-5.227-.967-5.334 8.745c-.041.134-.148.188-.269.188z" fill="#000" opacity=".09"/><path d="m283.662 351.132c-.026.027-.067.054-.107.081-.054.027-.081.054-.108.067-.255.148-.51.229-.739.242-.241.014-.456-.054-.645-.188-.188-.134-.336-.349-.456-.645-.121-.295-.175-.671-.175-1.142 0-.416.054-.833.161-1.249.108-.416.255-.806.43-1.169.188-.362.39-.685.645-.98.242-.282.497-.511.766-.672.309-.175.591-.269.833-.255.242 0 .457.08.632.242.174.161.309.389.403.685.094.295.134.658.134 1.074 0 .202-.013.43-.067.659-.04.228-.094.47-.161.698s-.135.457-.215.685c-.081.229-.148.43-.202.618l-1.451 4.138c-.027.053-.054.121-.094.201-.027.081-.081.148-.161.188l-.457.269c-.054.027-.081.027-.121-.013-.027-.041-.04-.095-.04-.162 0-.04 0-.08.013-.107s.013-.054.027-.081zm1.035-3.465c0-.256-.027-.471-.094-.659s-.148-.322-.255-.43c-.108-.094-.242-.147-.39-.147s-.322.053-.497.161c-.188.107-.349.255-.511.43-.148.174-.282.376-.389.604-.108.215-.189.457-.256.712-.067.256-.094.511-.094.766 0 .269.027.484.094.672.054.188.148.322.256.416.107.094.241.148.389.148s.323-.054.511-.161c.175-.108.349-.242.497-.43.161-.175.282-.376.39-.605.107-.228.188-.456.255-.712.067-.241.094-.51.094-.765z" fill="#455a64"/><path d="m286.779 350.219c.027.121.068.228.108.336.054.107.121.175.215.228.094.054.228.054.376.027.161-.027.363-.107.618-.255.161-.094.323-.215.47-.363.148-.148.283-.322.39-.51.108-.202.202-.417.269-.645s.107-.484.107-.752c0-.269-.026-.471-.094-.618-.067-.148-.147-.242-.255-.296-.107-.054-.242-.054-.39-.013-.147.04-.309.107-.483.201l-.659.39c-.054.04-.107.027-.148-.014-.04-.04-.067-.107-.067-.201v-.443c0-.081.014-.148.041-.229.026-.08.053-.148.08-.215l1.438-3.21-2.298 1.33c-.054.04-.107.026-.148-.014-.04-.04-.067-.107-.067-.201v-.444c0-.094.027-.174.067-.268.041-.094.094-.148.148-.188l3.144-1.814c.054-.04.108-.027.148.013.041.041.067.108.067.202v.443c0 .067-.013.148-.04.242-.027.081-.067.175-.107.269l-1.411 3.17c.268-.148.51-.228.725-.228.229-.014.417.053.565.174.161.121.282.323.363.578.08.255.134.578.134.967 0 .417-.054.82-.161 1.223-.108.389-.256.752-.43 1.088-.175.322-.39.618-.632.886-.242.269-.497.471-.766.632-.363.201-.672.322-.927.336-.255.026-.47-.027-.645-.135-.161-.107-.296-.268-.376-.483-.081-.215-.121-.444-.135-.712 0-.081.014-.148.054-.229.04-.067.081-.121.121-.147l.363-.215c.054-.041.107-.041.134 0 .054 0 .081.053.094.107z" fill="#455a64"/><path d="m282.13 371.323 47.164-27.324c.538-.309.968-.094.968.484s-.43 1.303-.968 1.612l-47.164 27.324c-.537.309-.967.094-.967-.484s.43-1.303.967-1.612z" fill="#e0e0e0"/><path d="m282.13 339.795 10.575-6.126c.538-.309.968-.094.968.484 0 .577-.43 1.303-.968 1.612l-10.575 6.125c-.537.309-.967.094-.967-.483 0-.578.43-1.303.967-1.612z" fill="#e0e0e0"/><path d="m352.098 267.899c2.325-1.344 4.475-1.411 6.222-.457l-6.222 16.765z" fill="#0d62f9"/><path d="m345.877 274.615c1.747-2.968 3.897-5.373 6.221-6.716v16.308z" fill="#0d62f9"/><path d="m342.02 284.973c.698-3.708 2.069-7.335 3.856-10.371l6.221 9.591z" fill="#0d62f9"/><path d="m345.876 274.615c-1.787 3.036-3.158 6.663-3.856 10.371l10.077-.779v-16.308c-2.324 1.343-4.474 3.748-6.221 6.716z" fill="#000" opacity=".3"/><path d="m358.32 267.428c1.787.968 3.157 3.009 3.856 5.925l-10.078 10.854z" fill="#0d62f9"/><path d="m342.02 295.061c-.336-1.397-.524-2.982-.524-4.742s.188-3.56.524-5.333l10.078-.779z" fill="#0d62f9"/><path d="m362.176 283.428c-.699 3.707-2.069 7.334-3.856 10.37l-6.222-9.591z" fill="#0d62f9"/><path d="m352.098 300.515c-2.324 1.344-4.474 1.411-6.221.457l6.221-16.765z" fill="#0d62f9"/><path d="m342.02 295.061 10.077-10.854-6.221 16.765c-1.787-.967-3.158-3.009-3.856-5.911z" fill="#0d62f9"/><path d="m362.176 273.353c.336 1.397.524 2.982.524 4.742 0 1.759-.188 3.56-.524 5.333l-10.078.779z" fill="#0d62f9"/><path d="m358.32 293.798c-1.747 2.969-3.897 5.374-6.222 6.717v-16.308z" fill="#0d62f9"/><path d="m346.816 308.83 10.575-6.125c.538-.309.968-.094.968.483 0 .578-.43 1.303-.968 1.612l-10.575 6.126c-.537.309-.967.094-.967-.484 0-.591.43-1.303.967-1.612z" fill="#455a64"/><path d="m344.478 316.487 15.238-8.839c.538-.309.968-.094.968.497 0 .578-.43 1.303-.968 1.612l-15.238 8.84c-.537.309-.967.094-.967-.484 0-.591.43-1.317.967-1.626z" fill="#e0e0e0"/><path d="m344.478 322.815 15.238-8.84c.538-.309.968-.094.968.497 0 .578-.43 1.303-.968 1.612l-15.238 8.84c-.537.309-.967.094-.967-.484 0-.604.43-1.316.967-1.625z" fill="#e0e0e0"/><path d="m344.478 329.128 15.238-8.839c.538-.309.968-.094.968.484 0 .577-.43 1.303-.968 1.612l-15.238 8.839c-.537.309-.967.094-.967-.497 0-.578.43-1.29.967-1.599z" fill="#e0e0e0"/><path d="m390.3 245.76c2.325-1.343 4.475-1.41 6.222-.456l-6.222 16.765z" fill="#0d62f9"/><path d="m384.079 252.477c1.747-2.969 3.897-5.373 6.222-6.717v16.309z" fill="#0d62f9"/><path d="m380.236 262.848c.699-3.708 2.069-7.335 3.856-10.371l6.222 9.592z" fill="#0d62f9"/><path d="m396.522 245.29c1.787.967 3.157 3.009 3.856 5.924l-10.078 10.855z" fill="#0d62f9"/><path d="m380.235 272.923c-.336-1.397-.524-2.982-.524-4.742s.188-3.56.524-5.333l10.078-.78z" fill="#0d62f9"/><path d="m400.378 261.289c-.699 3.708-2.069 7.335-3.856 10.371l-6.222-9.591z" fill="#0d62f9"/><path d="m390.301 278.377c-2.325 1.343-4.475 1.41-6.222.457l6.222-16.766z" fill="#0d62f9"/><path d="m380.236 272.923 10.078-10.855-6.222 16.766c-1.8-.968-3.157-3.01-3.856-5.911z" fill="#0d62f9"/><path d="m384.079 252.477c-1.787 3.036-3.158 6.663-3.857 10.371-.336 1.786-.524 3.573-.524 5.333s.188 3.345.524 4.742c.699 2.902 2.07 4.943 3.857 5.924l6.221-16.765v-16.308c-2.324 1.33-4.461 3.734-6.221 6.703z" fill="#000" opacity=".3"/><path d="m400.378 251.214c.336 1.397.524 2.983.524 4.742 0 1.76-.188 3.56-.524 5.333l-10.078.78z" fill="#0d62f9"/><path d="m396.522 271.66c-1.747 2.969-3.897 5.373-6.222 6.717v-16.309z" fill="#0d62f9"/><path d="m385.02 286.773 10.575-6.126c.537-.309.967-.094.967.497 0 .578-.43 1.303-.967 1.612l-10.575 6.126c-.538.309-.968.094-.968-.497 0-.578.43-1.303.968-1.612z" fill="#455a64"/><path d="m382.695 294.443 15.238-8.839c.537-.309.967-.094.967.497s-.43 1.303-.967 1.612l-15.238 8.839c-.537.309-.967.095-.967-.497 0-.591.43-1.303.967-1.612z" fill="#e0e0e0"/><path d="m382.695 300.757 15.238-8.839c.537-.309.967-.094.967.497s-.43 1.303-.967 1.612l-15.238 8.839c-.537.309-.967.094-.967-.497 0-.577.43-1.303.967-1.612z" fill="#e0e0e0"/><path d="m382.695 307.071 15.238-8.839c.537-.309.967-.094.967.497 0 .577-.43 1.303-.967 1.612l-15.238 8.839c-.537.309-.967.094-.967-.484 0-.591.43-1.316.967-1.625z" fill="#e0e0e0"/><path d="m390.097 464.418c.175-5.172-3.252-11.58-7.646-14.321-2.163-1.356-4.165-1.544-5.657-.779-8.989 4.514-72.171 45.016-76.202 47.004l-.054.027c-.752.403-1.236 1.303-1.276 2.606-.094 2.606 1.639 5.844 3.843 7.214 1.115.685 2.136.779 2.889.376l.053-.027c6.397-3.519 68.745-30.091 81.497-36.915h.013c1.492-.819 2.459-2.606 2.54-5.185z" fill="#0d62f9"/><path d="m387.61 455.686c-1.357-2.311-3.144-4.339-5.159-5.589-2.164-1.343-4.153-1.545-5.644-.792-.296.161-.39.215-.188.094-8.21 4.191-55.227 34.188-71.042 43.927-.041.027-.068.041-.108.068-.215.134-.43.268-.645.389-.067.04-.134.081-.188.121-.121.081-.242.148-.363.215-.148.081-.282.175-.43.255-.013.014-.027.014-.027.014-1.679 1.021-2.808 1.692-3.238 1.907l-.054.027c-.134.067-.255.175-.376.282-.524.484-.873 1.249-.914 2.311-.013.295.014.604.041.9.013.121.04.228.053.349.027.188.068.363.108.551.04.148.067.295.121.443.054.175.107.349.174.524.041.134.095.255.135.39.013.026.013.04.027.067z" fill="#000" opacity=".1"/><path d="m303.091 506.169c-2.203-1.37-3.923-4.594-3.829-7.187.08-2.593 1.948-3.587 4.152-2.217 2.203 1.371 3.923 4.595 3.829 7.187-.094 2.593-1.948 3.587-4.152 2.217z" fill="#0d62f9"/><path d="m284.211 507.902c-.067 1.988 1.25 4.46 2.943 5.521.847.524 1.613.604 2.19.295h.014l15.278-8.127h.013c.578-.309.941-.994.981-1.988.067-1.988-1.249-4.46-2.942-5.521-.847-.524-1.626-.605-2.204-.296l-15.278 8.128c-.578.295-.954.994-.995 1.988z" fill="#0fc3a5"/><path d="m285.206 505.914c-.578.309-.954.994-.994 2.001-.027.753.148 1.572.457 2.351l19.712-10.505c-.47-.698-1.062-1.29-1.693-1.679-.847-.524-1.626-.605-2.204-.296z" fill="#0fc3a5"/><path d="m303.817 521.469c0-9.793-6.477-19.586-19.417-27.055-25.88-14.938-67.844-14.938-93.724 0-12.94 7.469-19.417 17.262-19.417 27.055v18.028c0 9.793 6.477 19.586 19.417 27.055 25.88 14.938 67.844 14.938 93.724 0 12.94-7.469 19.417-17.262 19.417-27.055zm-109.93-21.507c11.556-6.676 27.063-10.343 43.658-10.343s32.101 3.68 43.657 10.343c10.454 6.032 16.205 13.662 16.205 21.507 0 7.832-5.751 15.462-16.205 21.494-11.556 6.677-27.062 10.344-43.657 10.344s-32.102-3.681-43.658-10.344c-10.454-6.032-16.205-13.662-16.205-21.494 0-7.831 5.751-15.475 16.205-21.507z" fill="#0d62f9"/><path d="m190.676 548.511c25.88 14.938 67.844 14.938 93.724 0s25.88-39.159 0-54.097-67.844-14.938-93.724 0-25.88 39.159 0 54.097zm-13.008-27.042c0-7.831 5.752-15.475 16.206-21.507 11.556-6.676 27.062-10.343 43.657-10.343s32.101 3.68 43.657 10.343c10.454 6.032 16.205 13.662 16.205 21.507 0 7.832-5.751 15.462-16.205 21.494-11.556 6.677-27.062 10.344-43.657 10.344s-32.101-3.681-43.657-10.344c-10.441-6.032-16.206-13.662-16.206-21.494z" fill="#83afff" opacity=".3"/><path d="m177.668 521.47c0 3.076.887 6.098 2.594 9.027 2.633-4.554 7.256-8.813 13.625-12.48 11.556-6.676 27.062-10.357 43.657-10.357 16.582 0 32.102 3.681 43.644 10.357 6.369 3.667 10.992 7.939 13.639 12.48 1.693-2.929 2.58-5.951 2.58-9.027 0-7.832-5.751-15.462-16.219-21.507-11.556-6.663-27.062-10.344-43.644-10.344-16.595 0-32.115 3.681-43.657 10.344-10.468 6.031-16.219 13.675-16.219 21.507z" fill="#0d62f9"/><path d="m177.668 531.47c0 3.076.887 6.098 2.594 9.027 2.633-4.554 7.256-8.813 13.625-12.48 11.556-6.676 27.062-10.357 43.657-10.357 16.582 0 32.102 3.681 43.644 10.357 6.369 3.667 10.992 7.939 13.639 12.48 1.693-2.929 2.58-5.951 2.58-9.027 0-7.832-5.751-15.462-16.219-21.507-11.556-6.663-27.062-10.344-43.644-10.344-16.595 0-32.115 3.681-43.657 10.344-10.468 6.031-16.219 13.675-16.219 21.507z" fill="#0d62f9" opacity=".1"/><path d="m193.875 508.13c11.555-6.676 27.062-10.344 43.657-10.344s32.101 3.681 43.657 10.344c8.627 4.984 14.042 11.042 15.668 17.423-1.64 6.368-7.055 12.44-15.668 17.424-11.556 6.676-27.062 10.343-43.657 10.343s-32.102-3.68-43.657-10.343c-8.627-4.984-14.042-11.043-15.668-17.424 1.639-6.367 7.054-12.439 15.668-17.423z" fill="#020410" opacity=".1"/><path d="m542.317 481.938c.974.404 1.193 2.285 1.26 6.031.051 2.839.538 7.795-2.789 8.719-3.344.907-8.201.303-10.267-2.419-2.588-3.393-4.319-6.367-8.016-10.516-3.209-3.595-6.688-6.972-7.914-11.961-1.093-4.503-.051-6.418 3.024-7.644 4.235-1.697 10.704 4.301 13.964 5.292 2.806.84 9.746 12.095 10.738 12.498z" fill="#263238"/><path d="m542.384 478.461-.101 4.603s-4.873 3.561-11.628.05c-.185-.453-1.059-6.602-1.059-6.602z" fill="#ffa8a7"/><path d="m504.458 507.591s1.227 4.032 1.865 7.543c.505 2.788 1.21 7.459.185 9.525s-4.856 3.326-10.737 3.158c-3.815-.118-9.814 2.335-13.931 4.519-4.251 2.251-13.023 2.99-17.459 2.369-5.226-.739-10.586-3.898-11.376-6.082-.807-2.183.37-4.418 12.838-9.39.118-.051 17.291-5.208 23.425-11.659z" fill="#263238"/><path d="m504.576 502.635s-.101 3.41-.117 5.359c-.034 1.949-2.403 4.805-8.352 4.452-4.184-.252-7.091-1.428-6.839-4.889l.118-4.972z" fill="#ffa8a7"/><path d="m546.753 417.497c-1.764-15.069-4.89-24.074-4.89-24.074s2.101-20.629 3.344-40.2c1.328-21.15 2.554-32.036-1.596-62.577 0 0-64.846-5.83-66.61 18.613-1.765 24.443.739 86.802 1.311 97.57.571 10.769 2.201 20.31 4.032 37.782 1.798 17.236 7.041 57.974 7.041 57.974 7.713 4.401 15.208.033 15.208.033s5.915-48.801 5.679-61.216c-.269-15.153-4.1-27.181-4.1-27.181s1.748-20.142 3.294-37.664 2.94-25.921 3.377-33.548l1.479-.689s.823 30.306 1.378 41.074c.571 10.769 2.05 21.117 4.705 41.142 2.302 17.37 9.511 54.194 9.511 54.194 7.713 4.401 12.468-.269 12.468-.269s6.134-45.879 4.369-60.964z" fill="#37474f"/><path d="m512.827 343.026s16.754-7.795 25.223-14.968c0 0-7.948 10.667-18.165 15.253 0 0-4.436 37.53-4.403 36.774l-1.243-37.093z" fill="#263238"/><path d="m501.216 203.542 2.521 22.393 21.139-1.075-2.336-26.123z" fill="#ffa8a7"/><path d="m532.857 212.126c7.865-.37 11.864.823 15.409 7.61 3.529 6.787 4.924 27.064 6.151 37.53 1.226 10.449 1.546 17.84-2.773 18.915-4.319 1.076-21.072 1.529-21.072 1.529z" fill="#37474f"/><path d="m546.149 223.717c-1.143-6.266-9.377-12.851-17.09-11.591-1.798.286-3.528.588-5.242.89-.924 3.763-11.242 6.115-21.106 3.797-2.974.773-12.754 2.604-15.224 3.427-7.091 2.352-10.015 9.324-11.107 32.439 0 0 .571 52.33.285 62.745 17.493 7.375 35.86 7.577 46.059 5.595 21.224-4.133 23.979-12.852 23.979-12.852l-3.159-23.939c-.016 0 5.176-46.332 2.605-60.511z" fill="#455a64"/><path d="m502.038 210.933.151 1.411s6.117 1.529 12.99 0c6.872-1.528 8.25-3.46 8.25-3.46l-.151-1.596s1.714-.638 2.604 1.999c.891 2.637.992 3.209.992 3.209s.79 4.804-7.293 7.257c-11.628 3.528-20.114-2.201-20.114-2.201l-3.159.672s2.739-6.316 3.562-7.593c.824-1.277 1.983-1.092 1.983-1.092z" fill="#37474f"/><path d="m437.495 186.927-41.926 21.873 20.837 56.949 39.119-21.906z" fill="#455a64"/><path d="m435.579 192.505-35.187 18.344 18.45 48.97 32.818-18.395z" fill="#f5f5f5"/><path d="m428.152 197.78s-.303-.773-.689-1.748c-.37-.957-3.311-.386-6.537 1.277l-6.2 3.192c-3.244 1.663-5.546 3.797-5.176 4.771l.689 1.747z" fill="#000" opacity=".15"/><path d="m427.48 190.825c-.235-.605-1.513-.504-2.84.218l-2.42 1.31s-1.495-3.763-7.074-1.159-4.302 6.972-4.302 6.972-1.159.638-2.571 1.411c-1.428.79-2.436 1.915-2.268 2.52l.319 1.109 21.593-11.273c-.017 0-.219-.52-.437-1.108z" fill="#0d62f9"/><path d="m425.146 193.344c-2.016.991-2.806 1.462-2.218 2.94.655 1.697 1.277 2.906 1.277 2.906l-9.545 4.99s-.789-2.15-1.142-2.99c-.353-.824-1.042-1.227-2.571-.437l-.572-.605 15.073-7.677z" fill="#0d62f9"/><path d="m425.146 193.344c-2.016.991-2.806 1.462-2.218 2.94.655 1.697 1.277 2.906 1.277 2.906l-9.545 4.99s-.789-2.15-1.142-2.99c-.353-.824-1.042-1.227-2.571-.437l-.572-.605 15.073-7.677z" fill="#000" opacity=".3"/><path d="m428.556 197.88s-.303-.773-.689-1.747c-.37-.957-3.311-.386-6.537 1.277l-6.2 3.192c-3.244 1.663-5.546 3.796-5.176 4.771l.689 1.747z" fill="#0d62f9"/><path d="m487.471 220.24c-9.679.84-13.796 2.604-21.072 15.707-7.881 14.212-23.038 39.949-24.971 43.191-2.672 4.519-3.176 11.39-.874 15.539 2.151 3.881 8.99 5.645 16.754-3.107 9.225-10.416 26.382-35.85 26.382-35.85s14.585-19.218 3.781-35.48z" fill="#ffa8a7"/><path d="m444.586 297.668c-7.427-.907-24.752-24.41-29.675-32.087-5.394-8.399-10.418-12.448-15.006-15.841-7.847-5.796-6.704-14.717-3.277-22.881 1.194-2.822 5.21-.991 5.21-.991l1.411 3.88 2.454 6.72c1.663 1.546 2.604 2.05 2.722 1.579.201-.873-1.227-4.468-1.193-8.231.05-4.519 3.209-1.546 4.167.033.941 1.579 2.05 4.166 3.344 7.476 1.579 4.048.924 8.148 2.857 10.919 1.932 2.755 27.776 27.518 27.776 27.518z" fill="#ffa8a7"/><path d="m489.335 219.736c-5.864-.151-12.905.79-18.366 7.879-5.462 7.089-27.307 45.643-27.307 45.643l-12.266-10.986s-7.713 4.452-9.427 13.322c0 0 5.915 9.373 11.107 15.068 5.176 5.679 10.956 9.626 15.695 7.879 4.738-1.747 9.578-5.493 19.778-19.705 10.2-14.196 21.341-30.961 21.341-30.961s7.04-16.379-.555-28.139z" fill="#37474f"/><path d="m486.311 176.142s-5.277 8.013-4.672 8.803 4.487 1.495 4.487 1.495z" fill="#f28f8f"/><path d="m488.78 181.299c-3.461 0-6.284-2.822-6.284-6.282 0-3.461 2.823-6.283 6.284-6.283 3.462 0 6.285 2.822 6.285 6.283.017 3.46-2.806 6.282-6.285 6.282zm0-11.188c-2.705 0-4.89 2.201-4.89 4.889 0 2.704 2.202 4.888 4.89 4.888 2.706 0 4.89-2.2 4.89-4.888s-2.184-4.889-4.89-4.889z" fill="#263238"/><path d="m500.98 154.001c-10.687 2.251-13.762 6.955-14.77 23.905-1.059 17.723.756 23.301 3.091 25.686 1.58 1.613 10.318 1.898 14.721.689 5.511-1.529 17.98-5.947 23.827-14.851 6.873-10.499 8.671-24.711 1.328-30.541-10.368-8.215-23.862-5.812-28.197-4.888z" fill="#ffa8a7"/><path d="m501.35 204.785-.488-3.259s-5.142 2.956-10.956 2.486c2.034.991 7.36 1.277 11.444.773z" fill="#f28f8f"/><path d="m483.084 173.689 18.988 2.453-.756 1.344-18.232-2.369z" fill="#263238"/><path d="m484.377 160.838c.807.118 1.63.067 2.42-.151-.706 1.512-.033 3.444 1.294 4.452 1.344 1.008 3.193 1.142 4.789.638-.571.991-.773 2.184-.521 3.31.504 2.318 3.126 4.334 5.529 3.998.117 2.486.151 4.905 2.789 6.047 0 0 1.68-6.551 7.209-5.728 5.562.823 6.318 7.912 2.806 12.213-3.478 4.284-6.721 2.671-6.772 2.654.32.168.437 2.251.555 2.655.353 1.226.823 2.452 1.428 3.578 1.193 2.301 2.907 4.317 4.991 5.863 2.89 2.133 6.419 3.662 10.032 2.788 3.125-.756 5.982-2.906 7.309-5.879.336-.74.605-1.563 1.193-2.117.723-.689 1.782-.857 2.723-1.176 2.184-.739 3.999-2.47 4.856-4.603.857-2.134.722-4.637-.336-6.686 2.621-.672 4.772-2.89 5.36-5.527.571-2.638-.454-5.561-2.554-7.274 3.126-1.915 4.755-5.997 3.781-9.542-.824-3.041-3.361-5.208-6.318-6.048-2.151-.621-1.328-.957-2-3.074-.454-1.445-1.311-2.755-2.487-3.713-2.016-1.646-4.89-2.184-7.36-1.36-.471-2.755-2.672-4.99-5.327-5.729-1.21-.336-2.537-.47-3.764-.151-.89.235-2.705 1.058-3.041 1.898-1.126-1.109-1.496-2.57-2.857-3.561-1.395-1.025-3.109-1.613-4.856-1.613-2.874.017-5.68 1.663-7.075 4.166-1.915-2.016-4.688-3.259-7.46-3.141-2.773.117-5.512 1.696-6.806 4.149s-.991 5.729.907 7.761c-1.714.723-3.293 1.915-4.133 3.579-.908 1.797-.79 4.048.588 5.577.655.739 1.092 1.226 2.083 1.545.337.084.689.152 1.025.202z" fill="#263238"/><path d="m500.577 182.845.201-7.408c-2.05-.051-3.747 1.562-3.814 3.611-.05 2.05 1.563 3.747 3.613 3.797z" fill="#263238"/></svg>